<svg width="375" height="812" viewBox="0 0 375 812" fill="none" xmlns="http://www.w3.org/2000/svg">
<rect width="375" height="812" rx="24" fill="white"/>
<path d="M375 0V374.127C323 413.547 257.9 437 187.6 437C117.2 437 53 413.447 0 373.927V0H375Z" fill="#FEC00F" fill-opacity="0.2"/>
<rect opacity="0.4" width="10" height="8" rx="4" transform="matrix(1 0 0 -1 212 659)" fill="#C75740"/>
<rect opacity="0.4" width="10" height="8" rx="4" transform="matrix(1 0 0 -1 192 659)" fill="#C75740"/>
<rect width="30" height="8" rx="4" transform="matrix(1 0 0 -1 152 659)" fill="#C75740"/>
<rect x="183" y="724" width="168" height="56" rx="8" fill="#C75740"/>
<path d="M258.278 752.4L252.998 744.8H251.558V756H253.398V748.4L258.678 756H260.118V744.8H258.278V752.4ZM269.97 752.736C270.018 752.432 270.034 752.192 270.034 752.016C270.034 750.848 269.65 749.84 268.898 749.024C268.146 748.208 267.186 747.792 266.018 747.792C264.786 747.792 263.762 748.192 262.978 749.008C262.194 749.808 261.794 750.8 261.794 752C261.794 753.216 262.194 754.224 262.994 755.024C263.794 755.808 264.85 756.208 266.146 756.208C267.698 756.208 268.866 755.632 269.65 754.464L268.226 753.632C267.762 754.288 267.074 754.624 266.162 754.624C264.834 754.624 263.858 753.952 263.602 752.736H269.97ZM263.586 751.328C263.826 750.112 264.722 749.36 266.002 749.36C267.138 749.36 268.05 750.032 268.29 751.328H263.586ZM275.309 751.904L278.157 748H276.141L274.301 750.528L272.461 748H270.461L273.309 751.888L270.301 756H272.317L274.317 753.264L276.301 756H278.301L275.309 751.904ZM283.925 748H281.941V745.76L280.213 746.272V748H278.741V749.664H280.213V753.504C280.213 755.6 281.285 756.32 283.925 756V754.448C282.613 754.512 281.941 754.528 281.941 753.504V749.664H283.925V748Z" fill="white"/>
<path d="M28.8394 758.208C31.1274 758.208 32.7114 756.96 32.7114 754.992C32.7114 752.832 30.8714 752.256 28.9194 751.616C27.3514 751.12 26.5674 750.736 26.5674 749.696C26.5674 748.672 27.3994 748.032 28.5994 748.032C29.9594 748.032 30.7434 748.8 31.1434 749.76L32.3914 749.04C31.7674 747.632 30.4394 746.592 28.5994 746.592C26.7274 746.592 25.0794 747.744 25.0794 749.76C25.0794 751.84 26.8074 752.4 28.5994 752.976C30.2474 753.488 31.2394 753.872 31.2394 755.024C31.2394 756.032 30.4554 756.752 28.8714 756.752C27.2394 756.752 26.2794 755.952 25.8794 754.72L24.5994 755.456C25.1914 757.136 26.7114 758.208 28.8394 758.208ZM41.0974 758L37.1454 753.872L40.9694 750H39.1774L35.7214 753.536V746.8H34.3294V758H35.7214V754.208L39.3694 758H41.0974ZM43.0959 748.544C43.6079 748.544 44.0239 748.128 44.0239 747.616C44.0239 747.104 43.6079 746.672 43.0959 746.672C42.5679 746.672 42.1519 747.104 42.1519 747.616C42.1519 748.128 42.5679 748.544 43.0959 748.544ZM42.3919 758H43.7839V750H42.3919V758ZM50.3236 749.792C48.9636 749.792 47.9396 750.4 47.2996 751.376V750H45.9076V761.2H47.2996V756.624C47.9396 757.6 48.9636 758.208 50.3236 758.208C52.5476 758.208 54.3716 756.368 54.3716 754C54.3716 751.632 52.5476 749.792 50.3236 749.792ZM50.1476 756.864C48.5316 756.864 47.2996 755.632 47.2996 754C47.2996 752.368 48.5316 751.136 50.1476 751.136C51.7476 751.136 52.9796 752.368 52.9796 754C52.9796 755.632 51.7476 756.864 50.1476 756.864Z" fill="#757D85"/>
<path opacity="0.8" d="M47.2602 570.354L44.8102 577.956L43.0042 571.67H42.0382L40.2462 577.984L37.7822 570.354H36.4242L39.6862 580H40.7922L42.5142 573.91L44.2502 580H45.3562L48.6182 570.354H47.2602ZM53.2987 573.294C52.5847 573.294 51.5207 573.658 51.1287 574.456V569.906H49.9107V580H51.1287V576.458C51.1287 575.044 52.2207 574.498 53.1307 574.498C54.0407 574.498 54.7127 575.198 54.7127 576.29V580H55.9307V576.22C55.9447 574.386 54.9227 573.294 53.2987 573.294ZM64.1374 576.71C64.1374 574.638 62.7514 573.294 60.8894 573.294C59.0274 573.294 57.5294 574.638 57.5294 576.71C57.5294 578.782 59.0274 580.168 60.8894 580.168C62.1494 580.168 63.3254 579.552 63.8854 578.418L62.8354 577.998C62.4574 578.656 61.7294 579.02 60.9314 579.02C59.8114 579.02 58.9714 578.418 58.7894 577.256H64.1094C64.1234 577.074 64.1374 576.892 64.1374 576.71ZM58.8034 576.206C58.9994 575.03 59.7834 574.442 60.8894 574.442C61.9674 574.442 62.7654 575.086 62.9194 576.206H58.8034ZM69.1854 573.294C68.4714 573.294 67.4074 573.658 67.0154 574.456V573.462H65.7974V580H67.0154V576.458C67.0154 575.044 68.1074 574.498 69.0174 574.498C69.9274 574.498 70.5994 575.198 70.5994 576.29V580H71.8174V576.22C71.8314 574.386 70.8094 573.294 69.1854 573.294ZM81.8571 573.462L79.8551 578.278L77.8811 573.462H76.5651L79.1971 579.804L77.8251 583.178H79.1131L83.1731 573.462H81.8571ZM87.2224 580.168C89.0844 580.168 90.6524 578.796 90.6524 576.724C90.6524 574.652 89.0844 573.294 87.2224 573.294C85.3604 573.294 83.8064 574.652 83.8064 576.724C83.8064 578.796 85.3604 580.168 87.2224 580.168ZM87.2224 579.02C86.0324 579.02 85.0384 578.082 85.0384 576.724C85.0384 575.38 86.0324 574.442 87.2224 574.442C88.4264 574.442 89.4344 575.38 89.4344 576.724C89.4344 578.082 88.4264 579.02 87.2224 579.02ZM97.0662 573.462V577.06C97.0522 578.474 95.9602 579.02 95.0502 579.02C94.1402 579.02 93.4822 578.32 93.4822 577.214V573.462H92.2642V577.242C92.2502 579.076 93.2582 580.168 94.8962 580.168C95.6242 580.168 96.6742 579.804 97.0662 578.978V580H98.2842V573.462H97.0662ZM106.91 580.168C108.772 580.168 110.34 578.796 110.34 576.724C110.34 574.652 108.772 573.294 106.91 573.294C105.048 573.294 103.494 574.652 103.494 576.724C103.494 578.796 105.048 580.168 106.91 580.168ZM106.91 579.02C105.72 579.02 104.726 578.082 104.726 576.724C104.726 575.38 105.72 574.442 106.91 574.442C108.114 574.442 109.122 575.38 109.122 576.724C109.122 578.082 108.114 579.02 106.91 579.02ZM117.202 569.906V574.484C116.768 573.714 115.844 573.294 114.864 573.294C113.072 573.294 111.602 574.652 111.602 576.724C111.602 578.782 113.086 580.168 114.878 580.168C115.816 580.168 116.768 579.72 117.202 578.978V580H118.42V569.906H117.202ZM114.976 579.02C113.786 579.02 112.834 578.012 112.834 576.71C112.834 575.394 113.786 574.442 114.976 574.442C116.054 574.442 117.202 575.296 117.202 576.71C117.202 578.11 116.152 579.02 114.976 579.02ZM126.727 576.71C126.727 574.638 125.341 573.294 123.479 573.294C121.617 573.294 120.119 574.638 120.119 576.71C120.119 578.782 121.617 580.168 123.479 580.168C124.739 580.168 125.915 579.552 126.475 578.418L125.425 577.998C125.047 578.656 124.319 579.02 123.521 579.02C122.401 579.02 121.561 578.418 121.379 577.256H126.699C126.713 577.074 126.727 576.892 126.727 576.71ZM121.393 576.206C121.589 575.03 122.373 574.442 123.479 574.442C124.557 574.442 125.355 575.086 125.509 576.206H121.393ZM131.453 573.294C130.585 573.294 129.955 573.798 129.619 574.946V573.462H128.387V580H129.619V577.606C129.619 575.884 130.137 574.47 131.439 574.47C131.691 574.47 132.041 574.526 132.391 574.694L132.587 573.546C132.391 573.42 131.915 573.294 131.453 573.294ZM138.513 578.824V575.856H142.377V574.666H138.513V571.53H142.937V570.354H137.253V580H143.077V578.824H138.513ZM149.863 573.462V574.484C149.429 573.714 148.505 573.294 147.525 573.294C145.677 573.294 144.263 574.792 144.263 576.724C144.263 578.726 145.761 580.168 147.469 580.168C148.519 580.168 149.429 579.622 149.863 578.838V580H151.081V573.462H149.863ZM147.651 579.02C146.447 579.02 145.495 577.97 145.495 576.724C145.495 575.492 146.447 574.442 147.637 574.442C148.729 574.442 149.863 575.38 149.863 576.724C149.863 578.054 148.813 579.02 147.651 579.02ZM156.351 573.462H154.937V570.998H153.719V573.462H152.543V574.512H153.719V580H154.937V574.512H156.351V573.462ZM164.293 580.168C166.295 580.168 167.513 578.782 167.513 577.284C167.513 575.912 166.533 575.072 164.895 574.638L163.635 574.302C162.347 573.966 162.235 573.294 162.235 572.958C162.235 572.006 163.131 571.362 164.097 571.362C165.133 571.362 165.931 572.02 165.931 572.986H167.191C167.191 571.264 165.833 570.186 164.139 570.186C162.459 570.186 160.961 571.306 160.961 572.972C160.961 573.756 161.283 574.96 163.327 575.45L164.573 575.758C165.385 575.968 166.239 576.388 166.239 577.326C166.239 578.18 165.539 578.992 164.293 578.992C163.005 578.992 162.193 578.124 162.151 577.27H160.891C160.905 578.768 162.263 580.168 164.293 580.168ZM172.252 573.462H170.838V570.998H169.62V573.462H168.444V574.512H169.62V580H170.838V574.512H172.252V573.462ZM179.651 576.71C179.651 574.638 178.265 573.294 176.403 573.294C174.541 573.294 173.043 574.638 173.043 576.71C173.043 578.782 174.541 580.168 176.403 580.168C177.663 580.168 178.839 579.552 179.399 578.418L178.349 577.998C177.971 578.656 177.243 579.02 176.445 579.02C175.325 579.02 174.485 578.418 174.303 577.256H179.623C179.637 577.074 179.651 576.892 179.651 576.71ZM174.317 576.206C174.513 575.03 175.297 574.442 176.403 574.442C177.481 574.442 178.279 575.086 178.433 576.206H174.317ZM187.485 576.71C187.485 574.638 186.099 573.294 184.237 573.294C182.375 573.294 180.877 574.638 180.877 576.71C180.877 578.782 182.375 580.168 184.237 580.168C185.497 580.168 186.673 579.552 187.233 578.418L186.183 577.998C185.805 578.656 185.077 579.02 184.279 579.02C183.159 579.02 182.319 578.418 182.137 577.256H187.457C187.471 577.074 187.485 576.892 187.485 576.71ZM182.151 576.206C182.347 575.03 183.131 574.442 184.237 574.442C185.315 574.442 186.113 575.086 186.267 576.206H182.151ZM192.185 573.462H190.771V570.998H189.553V573.462H188.377V574.512H189.553V580H190.771V574.512H192.185V573.462ZM192.927 582.254C194.005 581.344 194.649 579.846 194.481 578.236H193.151C193.333 579.944 192.871 580.882 192.087 582.002L192.927 582.254ZM208.44 573.462L206.774 578.11L205.094 573.462H203.904L202.238 578.11L200.572 573.462H199.256L201.748 580H202.756L204.492 575.142L206.298 580H207.32L209.756 573.462H208.44ZM217.098 576.71C217.098 574.638 215.712 573.294 213.85 573.294C211.988 573.294 210.49 574.638 210.49 576.71C210.49 578.782 211.988 580.168 213.85 580.168C215.11 580.168 216.286 579.552 216.846 578.418L215.796 577.998C215.418 578.656 214.69 579.02 213.892 579.02C212.772 579.02 211.932 578.418 211.75 577.256H217.07C217.084 577.074 217.098 576.892 217.098 576.71ZM211.764 576.206C211.96 575.03 212.744 574.442 213.85 574.442C214.928 574.442 215.726 575.086 215.88 576.206H211.764ZM218.599 573.91C219.677 573 220.363 571.502 220.209 569.892H218.935C219.117 571.6 218.655 572.538 217.871 573.644L218.599 573.91ZM221.862 580H223.08V569.906H221.862V580ZM225.198 580H226.416V569.906H225.198V580ZM235.463 573.294C234.749 573.294 233.685 573.658 233.293 574.456V569.906H232.075V580H233.293V576.458C233.293 575.044 234.385 574.498 235.295 574.498C236.205 574.498 236.877 575.198 236.877 576.29V580H238.095V576.22C238.109 574.386 237.087 573.294 235.463 573.294ZM243.095 580.168C244.957 580.168 246.525 578.796 246.525 576.724C246.525 574.652 244.957 573.294 243.095 573.294C241.233 573.294 239.679 574.652 239.679 576.724C239.679 578.796 241.233 580.168 243.095 580.168ZM243.095 579.02C241.905 579.02 240.911 578.082 240.911 576.724C240.911 575.38 241.905 574.442 243.095 574.442C244.299 574.442 245.307 575.38 245.307 576.724C245.307 578.082 244.299 579.02 243.095 579.02ZM251.189 580.168C253.051 580.168 254.619 578.796 254.619 576.724C254.619 574.652 253.051 573.294 251.189 573.294C249.327 573.294 247.773 574.652 247.773 576.724C247.773 578.796 249.327 580.168 251.189 580.168ZM251.189 579.02C249.999 579.02 249.005 578.082 249.005 576.724C249.005 575.38 249.999 574.442 251.189 574.442C252.393 574.442 253.401 575.38 253.401 576.724C253.401 578.082 252.393 579.02 251.189 579.02ZM262.181 580L258.695 576.29L261.495 573.462H259.801L257.533 575.772V569.906H256.315V580H257.533V576.808L260.543 580H262.181ZM270.871 573.462L268.869 578.278L266.895 573.462H265.579L268.211 579.804L266.839 583.178H268.127L272.187 573.462H270.871ZM276.236 580.168C278.098 580.168 279.666 578.796 279.666 576.724C279.666 574.652 278.098 573.294 276.236 573.294C274.374 573.294 272.82 574.652 272.82 576.724C272.82 578.796 274.374 580.168 276.236 580.168ZM276.236 579.02C275.046 579.02 274.052 578.082 274.052 576.724C274.052 575.38 275.046 574.442 276.236 574.442C277.44 574.442 278.448 575.38 278.448 576.724C278.448 578.082 277.44 579.02 276.236 579.02ZM286.08 573.462V577.06C286.066 578.474 284.974 579.02 284.064 579.02C283.154 579.02 282.496 578.32 282.496 577.214V573.462H281.278V577.242C281.264 579.076 282.272 580.168 283.91 580.168C284.638 580.168 285.688 579.804 286.08 578.978V580H287.298V573.462H286.08ZM297.674 573.462V577.06C297.66 578.474 296.568 579.02 295.658 579.02C294.748 579.02 294.09 578.32 294.09 577.214V573.462H292.872V577.242C292.858 579.076 293.866 580.168 295.504 580.168C296.232 580.168 297.282 579.804 297.674 578.978V580H298.892V573.462H297.674ZM304.55 573.294C303.612 573.294 302.66 573.742 302.226 574.484V573.462H301.008V583.178H302.226V578.978C302.66 579.748 303.584 580.168 304.564 580.168C306.356 580.168 307.826 578.81 307.826 576.738C307.826 574.68 306.342 573.294 304.55 573.294ZM304.438 579.02C303.374 579.02 302.226 578.166 302.226 576.752C302.226 575.352 303.276 574.442 304.438 574.442C305.642 574.442 306.594 575.45 306.594 576.752C306.594 578.068 305.642 579.02 304.438 579.02ZM321.383 573.462L319.717 578.11L318.037 573.462H316.847L315.181 578.11L313.515 573.462H312.199L314.691 580H315.699L317.435 575.142L319.241 580H320.263L322.699 573.462H321.383ZM324.579 571.866C325.055 571.866 325.447 571.516 325.447 571.054C325.447 570.592 325.055 570.242 324.579 570.242C324.117 570.242 323.725 570.592 323.725 571.054C323.725 571.516 324.117 571.866 324.579 571.866ZM323.977 580H325.195V573.462H323.977V580ZM330.449 573.462H329.035V570.998H327.817V573.462H326.641V574.512H327.817V580H329.035V574.512H330.449V573.462ZM335.199 573.294C334.485 573.294 333.421 573.658 333.029 574.456V569.906H331.811V580H333.029V576.458C333.029 575.044 334.121 574.498 335.031 574.498C335.941 574.498 336.613 575.198 336.613 576.29V580H337.831V576.22C337.845 574.386 336.823 573.294 335.199 573.294ZM69.7292 600.71C69.7292 598.638 68.3432 597.294 66.4812 597.294C64.6192 597.294 63.1212 598.638 63.1212 600.71C63.1212 602.782 64.6192 604.168 66.4812 604.168C67.7412 604.168 68.9172 603.552 69.4772 602.418L68.4272 601.998C68.0492 602.656 67.3212 603.02 66.5232 603.02C65.4032 603.02 64.5632 602.418 64.3812 601.256H69.7012C69.7152 601.074 69.7292 600.892 69.7292 600.71ZM64.3952 600.206C64.5912 599.03 65.3752 598.442 66.4812 598.442C67.5592 598.442 68.3572 599.086 68.5112 600.206H64.3952ZM76.8404 604L74.2644 600.416L76.3924 597.462H74.9084L73.5364 599.408L72.1644 597.462H70.6944L72.8084 600.402L70.2184 604H71.6744L73.5364 601.438L75.3844 604H76.8404ZM80.8123 604.168C81.8343 604.168 82.7303 603.776 83.3043 603.132L82.5343 602.334C82.1283 602.754 81.5403 603.02 80.8543 603.02C79.5663 603.02 78.5303 602.068 78.5303 600.724C78.5303 599.38 79.5663 598.442 80.8543 598.442C81.5403 598.442 82.1283 598.708 82.5343 599.128L83.3043 598.33C82.7303 597.7 81.8343 597.294 80.8123 597.294C78.9363 597.294 77.2983 598.652 77.2983 600.724C77.2983 602.796 78.9363 604.168 80.8123 604.168ZM84.8423 604H86.0603V593.906H84.8423V604ZM92.8963 597.462V601.06C92.8823 602.474 91.7903 603.02 90.8803 603.02C89.9703 603.02 89.3123 602.32 89.3123 601.214V597.462H88.0943V601.242C88.0803 603.076 89.0883 604.168 90.7263 604.168C91.4543 604.168 92.5043 603.804 92.8963 602.978V604H94.1143V597.462H92.8963ZM98.149 604.168C99.507 604.168 100.683 603.398 100.683 602.18C100.683 601.438 100.333 600.626 98.975 600.29L98.009 600.052C97.589 599.954 97.169 599.716 97.169 599.268C97.169 598.764 97.589 598.358 98.219 598.358C98.737 598.358 99.255 598.694 99.269 599.198H100.445C100.445 597.882 99.297 597.294 98.191 597.294C96.875 597.294 95.951 598.148 95.951 599.226C95.951 600.276 96.581 600.808 97.673 601.102L98.569 601.312C99.087 601.424 99.465 601.676 99.465 602.166C99.465 602.698 98.975 603.104 98.149 603.104C97.351 603.104 96.861 602.642 96.847 602.082H95.713C95.769 603.426 96.973 604.168 98.149 604.168ZM102.917 595.866C103.393 595.866 103.785 595.516 103.785 595.054C103.785 594.592 103.393 594.242 102.917 594.242C102.455 594.242 102.063 594.592 102.063 595.054C102.063 595.516 102.455 595.866 102.917 595.866ZM102.315 604H103.533V597.462H102.315V604ZM110.117 597.462L108.115 602.446L106.099 597.462H104.797L107.513 604H108.703L111.433 597.462H110.117ZM118.716 600.71C118.716 598.638 117.33 597.294 115.468 597.294C113.606 597.294 112.108 598.638 112.108 600.71C112.108 602.782 113.606 604.168 115.468 604.168C116.728 604.168 117.904 603.552 118.464 602.418L117.414 601.998C117.036 602.656 116.308 603.02 115.51 603.02C114.39 603.02 113.55 602.418 113.368 601.256H118.688C118.702 601.074 118.716 600.892 118.716 600.71ZM113.382 600.206C113.578 599.03 114.362 598.442 115.468 598.442C116.546 598.442 117.344 599.086 117.498 600.206H113.382ZM126.969 604.168C127.991 604.168 128.887 603.776 129.461 603.132L128.691 602.334C128.285 602.754 127.697 603.02 127.011 603.02C125.723 603.02 124.687 602.068 124.687 600.724C124.687 599.38 125.723 598.442 127.011 598.442C127.697 598.442 128.285 598.708 128.691 599.128L129.461 598.33C128.887 597.7 127.991 597.294 126.969 597.294C125.093 597.294 123.455 598.652 123.455 600.724C123.455 602.796 125.093 604.168 126.969 604.168ZM133.803 604.168C135.665 604.168 137.233 602.796 137.233 600.724C137.233 598.652 135.665 597.294 133.803 597.294C131.941 597.294 130.387 598.652 130.387 600.724C130.387 602.796 131.941 604.168 133.803 604.168ZM133.803 603.02C132.613 603.02 131.619 602.082 131.619 600.724C131.619 599.38 132.613 598.442 133.803 598.442C135.007 598.442 136.015 599.38 136.015 600.724C136.015 602.082 135.007 603.02 133.803 603.02ZM143.646 597.462V601.06C143.632 602.474 142.54 603.02 141.63 603.02C140.72 603.02 140.062 602.32 140.062 601.214V597.462H138.844V601.242C138.83 603.076 139.838 604.168 141.476 604.168C142.204 604.168 143.254 603.804 143.646 602.978V604H144.864V597.462H143.646ZM150.523 597.294C149.585 597.294 148.633 597.742 148.199 598.484V597.462H146.981V607.178H148.199V602.978C148.633 603.748 149.557 604.168 150.537 604.168C152.329 604.168 153.799 602.81 153.799 600.738C153.799 598.68 152.315 597.294 150.523 597.294ZM150.411 603.02C149.347 603.02 148.199 602.166 148.199 600.752C148.199 599.352 149.249 598.442 150.411 598.442C151.615 598.442 152.567 599.45 152.567 600.752C152.567 602.068 151.615 603.02 150.411 603.02ZM158.467 604.168C160.329 604.168 161.897 602.796 161.897 600.724C161.897 598.652 160.329 597.294 158.467 597.294C156.605 597.294 155.051 598.652 155.051 600.724C155.051 602.796 156.605 604.168 158.467 604.168ZM158.467 603.02C157.277 603.02 156.283 602.082 156.283 600.724C156.283 599.38 157.277 598.442 158.467 598.442C159.671 598.442 160.679 599.38 160.679 600.724C160.679 602.082 159.671 603.02 158.467 603.02ZM166.98 597.294C166.266 597.294 165.202 597.658 164.81 598.456V597.462H163.592V604H164.81V600.458C164.81 599.044 165.902 598.498 166.812 598.498C167.722 598.498 168.394 599.198 168.394 600.29V604H169.612V600.22C169.626 598.386 168.604 597.294 166.98 597.294ZM171.407 606.254C172.485 605.344 173.129 603.846 172.961 602.236H171.631C171.813 603.944 171.351 604.882 170.567 606.002L171.407 606.254ZM180.522 604.168C181.88 604.168 183.056 603.398 183.056 602.18C183.056 601.438 182.706 600.626 181.348 600.29L180.382 600.052C179.962 599.954 179.542 599.716 179.542 599.268C179.542 598.764 179.962 598.358 180.592 598.358C181.11 598.358 181.628 598.694 181.642 599.198H182.818C182.818 597.882 181.67 597.294 180.564 597.294C179.248 597.294 178.324 598.148 178.324 599.226C178.324 600.276 178.954 600.808 180.046 601.102L180.942 601.312C181.46 601.424 181.838 601.676 181.838 602.166C181.838 602.698 181.348 603.104 180.522 603.104C179.724 603.104 179.234 602.642 179.22 602.082H178.086C178.142 603.426 179.346 604.168 180.522 604.168ZM188.23 597.294C187.292 597.294 186.34 597.742 185.906 598.484V597.462H184.688V607.178H185.906V602.978C186.34 603.748 187.264 604.168 188.244 604.168C190.036 604.168 191.506 602.81 191.506 600.738C191.506 598.68 190.022 597.294 188.23 597.294ZM188.118 603.02C187.054 603.02 185.906 602.166 185.906 600.752C185.906 599.352 186.956 598.442 188.118 598.442C189.322 598.442 190.274 599.45 190.274 600.752C190.274 602.068 189.322 603.02 188.118 603.02ZM199.38 600.71C199.38 598.638 197.994 597.294 196.132 597.294C194.27 597.294 192.772 598.638 192.772 600.71C192.772 602.782 194.27 604.168 196.132 604.168C197.392 604.168 198.568 603.552 199.128 602.418L198.078 601.998C197.7 602.656 196.972 603.02 196.174 603.02C195.054 603.02 194.214 602.418 194.032 601.256H199.352C199.366 601.074 199.38 600.892 199.38 600.71ZM194.046 600.206C194.242 599.03 195.026 598.442 196.132 598.442C197.21 598.442 198.008 599.086 198.162 600.206H194.046ZM204.092 604.168C205.114 604.168 206.01 603.776 206.584 603.132L205.814 602.334C205.408 602.754 204.82 603.02 204.134 603.02C202.846 603.02 201.81 602.068 201.81 600.724C201.81 599.38 202.846 598.442 204.134 598.442C204.82 598.442 205.408 598.708 205.814 599.128L206.584 598.33C206.01 597.7 205.114 597.294 204.092 597.294C202.216 597.294 200.578 598.652 200.578 600.724C200.578 602.796 202.216 604.168 204.092 604.168ZM208.724 595.866C209.2 595.866 209.592 595.516 209.592 595.054C209.592 594.592 209.2 594.242 208.724 594.242C208.262 594.242 207.87 594.592 207.87 595.054C207.87 595.516 208.262 595.866 208.724 595.866ZM208.122 604H209.34V597.462H208.122V604ZM216.61 597.462V598.484C216.176 597.714 215.252 597.294 214.272 597.294C212.424 597.294 211.01 598.792 211.01 600.724C211.01 602.726 212.508 604.168 214.216 604.168C215.266 604.168 216.176 603.622 216.61 602.838V604H217.828V597.462H216.61ZM214.398 603.02C213.194 603.02 212.242 601.97 212.242 600.724C212.242 599.492 213.194 598.442 214.384 598.442C215.476 598.442 216.61 599.38 216.61 600.724C216.61 602.054 215.56 603.02 214.398 603.02ZM219.961 604H221.179V593.906H219.961V604ZM225.215 604.168C226.573 604.168 227.749 603.398 227.749 602.18C227.749 601.438 227.399 600.626 226.041 600.29L225.075 600.052C224.655 599.954 224.235 599.716 224.235 599.268C224.235 598.764 224.655 598.358 225.285 598.358C225.803 598.358 226.321 598.694 226.335 599.198H227.511C227.511 597.882 226.363 597.294 225.257 597.294C223.941 597.294 223.017 598.148 223.017 599.226C223.017 600.276 223.647 600.808 224.739 601.102L225.635 601.312C226.153 601.424 226.531 601.676 226.531 602.166C226.531 602.698 226.041 603.104 225.215 603.104C224.417 603.104 223.927 602.642 223.913 602.082H222.779C222.835 603.426 224.039 604.168 225.215 604.168ZM238.074 597.462V598.484C237.64 597.714 236.716 597.294 235.736 597.294C233.888 597.294 232.474 598.792 232.474 600.724C232.474 602.726 233.972 604.168 235.68 604.168C236.73 604.168 237.64 603.622 238.074 602.838V604H239.292V597.462H238.074ZM235.862 603.02C234.658 603.02 233.706 601.97 233.706 600.724C233.706 599.492 234.658 598.442 235.848 598.442C236.94 598.442 238.074 599.38 238.074 600.724C238.074 602.054 237.024 603.02 235.862 603.02ZM244.814 597.294C244.1 597.294 243.036 597.658 242.644 598.456V597.462H241.426V604H242.644V600.458C242.644 599.044 243.736 598.498 244.646 598.498C245.556 598.498 246.228 599.198 246.228 600.29V604H247.446V600.22C247.46 598.386 246.438 597.294 244.814 597.294ZM254.645 593.906V598.484C254.211 597.714 253.287 597.294 252.307 597.294C250.515 597.294 249.045 598.652 249.045 600.724C249.045 602.782 250.529 604.168 252.321 604.168C253.259 604.168 254.211 603.72 254.645 602.978V604H255.863V593.906H254.645ZM252.419 603.02C251.229 603.02 250.277 602.012 250.277 600.71C250.277 599.394 251.229 598.442 252.419 598.442C253.497 598.442 254.645 599.296 254.645 600.71C254.645 602.11 253.595 603.02 252.419 603.02ZM264.604 597.294C263.736 597.294 263.106 597.798 262.77 598.946V597.462H261.538V604H262.77V601.606C262.77 599.884 263.288 598.47 264.59 598.47C264.842 598.47 265.192 598.526 265.542 598.694L265.738 597.546C265.542 597.42 265.066 597.294 264.604 597.294ZM272.907 600.71C272.907 598.638 271.521 597.294 269.659 597.294C267.797 597.294 266.299 598.638 266.299 600.71C266.299 602.782 267.797 604.168 269.659 604.168C270.919 604.168 272.095 603.552 272.655 602.418L271.605 601.998C271.227 602.656 270.499 603.02 269.701 603.02C268.581 603.02 267.741 602.418 267.559 601.256H272.879C272.893 601.074 272.907 600.892 272.907 600.71ZM267.573 600.206C267.769 599.03 268.553 598.442 269.659 598.442C270.737 598.442 271.535 599.086 271.689 600.206H267.573ZM282.787 597.462L281.121 602.11L279.441 597.462H278.251L276.585 602.11L274.919 597.462H273.603L276.095 604H277.103L278.839 599.142L280.645 604H281.667L284.103 597.462H282.787ZM290.424 597.462V598.484C289.99 597.714 289.066 597.294 288.086 597.294C286.238 597.294 284.824 598.792 284.824 600.724C284.824 602.726 286.322 604.168 288.03 604.168C289.08 604.168 289.99 603.622 290.424 602.838V604H291.642V597.462H290.424ZM288.212 603.02C287.008 603.02 286.056 601.97 286.056 600.724C286.056 599.492 287.008 598.442 288.198 598.442C289.29 598.442 290.424 599.38 290.424 600.724C290.424 602.054 289.374 603.02 288.212 603.02ZM296.842 597.294C295.974 597.294 295.344 597.798 295.008 598.946V597.462H293.776V604H295.008V601.606C295.008 599.884 295.526 598.47 296.828 598.47C297.08 598.47 297.43 598.526 297.78 598.694L297.976 597.546C297.78 597.42 297.304 597.294 296.842 597.294ZM304.137 593.906V598.484C303.703 597.714 302.779 597.294 301.799 597.294C300.007 597.294 298.537 598.652 298.537 600.724C298.537 602.782 300.021 604.168 301.813 604.168C302.751 604.168 303.703 603.72 304.137 602.978V604H305.355V593.906H304.137ZM301.911 603.02C300.721 603.02 299.769 602.012 299.769 600.71C299.769 599.394 300.721 598.442 301.911 598.442C302.989 598.442 304.137 599.296 304.137 600.71C304.137 602.11 303.087 603.02 301.911 603.02ZM309.407 604.168C310.765 604.168 311.941 603.398 311.941 602.18C311.941 601.438 311.591 600.626 310.233 600.29L309.267 600.052C308.847 599.954 308.427 599.716 308.427 599.268C308.427 598.764 308.847 598.358 309.477 598.358C309.995 598.358 310.513 598.694 310.527 599.198H311.703C311.703 597.882 310.555 597.294 309.449 597.294C308.133 597.294 307.209 598.148 307.209 599.226C307.209 600.276 307.839 600.808 308.931 601.102L309.827 601.312C310.345 601.424 310.723 601.676 310.723 602.166C310.723 602.698 310.233 603.104 309.407 603.104C308.609 603.104 308.119 602.642 308.105 602.082H306.971C307.027 603.426 308.231 604.168 309.407 604.168Z" fill="#525C67"/>
<path d="M59.9795 529.312V531.784H65.5955C65.0915 534.112 63.1475 535.624 60.1715 535.624C58.3235 535.624 56.8115 535.048 55.6595 533.92C54.5315 532.792 53.9555 531.352 53.9555 529.624C53.9555 527.896 54.5315 526.456 55.6595 525.304C56.7875 524.152 58.2515 523.576 60.0035 523.576C62.1875 523.576 64.0595 524.632 64.9475 526.24L67.3235 524.872C65.8835 522.448 63.1475 520.888 60.0035 520.888C57.5075 520.888 55.4195 521.728 53.7155 523.432C52.0355 525.112 51.1955 527.176 51.1955 529.6C51.1955 532.048 52.0355 534.112 53.7155 535.792C55.4195 537.472 57.5555 538.312 60.1475 538.312C62.5955 538.312 64.5875 537.592 66.0995 536.128C67.6115 534.664 68.3795 532.768 68.3795 530.464V529.312H59.9795ZM82.3267 533.104C82.3987 532.648 82.4227 532.288 82.4227 532.024C82.4227 530.272 81.8467 528.76 80.7187 527.536C79.5907 526.312 78.1507 525.688 76.3987 525.688C74.5507 525.688 73.0147 526.288 71.8387 527.512C70.6627 528.712 70.0627 530.2 70.0627 532C70.0627 533.824 70.6627 535.336 71.8627 536.536C73.0627 537.712 74.6467 538.312 76.5907 538.312C78.9187 538.312 80.6707 537.448 81.8467 535.696L79.7107 534.448C79.0147 535.432 77.9827 535.936 76.6147 535.936C74.6227 535.936 73.1587 534.928 72.7747 533.104H82.3267ZM72.7507 530.992C73.1107 529.168 74.4547 528.04 76.3747 528.04C78.0787 528.04 79.4467 529.048 79.8067 530.992H72.7507ZM91.0244 526H88.0484V522.64L85.4564 523.408V526H83.2484V528.496H85.4564V534.256C85.4564 537.4 87.0644 538.48 91.0244 538V535.672C89.0564 535.768 88.0484 535.792 88.0484 534.256V528.496H91.0244V526ZM104.508 534.712L100.932 526H98.1005L103.188 537.784L103.068 538.024C102.42 539.68 101.508 540.472 99.8765 540.376V542.8C102.636 542.968 104.58 541.48 105.732 538.384L110.34 526H107.58L104.508 534.712ZM117.156 538.312C118.932 538.312 120.42 537.712 121.644 536.488C122.868 535.264 123.492 533.776 123.492 532C123.492 530.224 122.868 528.736 121.644 527.512C120.42 526.288 118.932 525.688 117.156 525.688C115.404 525.688 113.892 526.288 112.668 527.512C111.444 528.736 110.82 530.224 110.82 532C110.82 533.776 111.444 535.264 112.668 536.488C113.892 537.712 115.404 538.312 117.156 538.312ZM114.492 534.712C113.772 533.992 113.412 533.08 113.412 532C113.412 530.92 113.772 530.008 114.492 529.288C115.212 528.568 116.1 528.208 117.156 528.208C118.212 528.208 119.1 528.568 119.82 529.288C120.54 530.008 120.9 530.92 120.9 532C120.9 533.08 120.54 533.992 119.82 534.712C119.1 535.432 118.212 535.792 117.156 535.792C116.1 535.792 115.212 535.432 114.492 534.712ZM133.924 532.432C133.924 534.76 132.7 535.888 130.876 535.888C129.22 535.888 128.188 534.904 128.188 533.104V526H125.596V533.368C125.596 536.44 127.444 538.312 130.204 538.312C131.908 538.312 133.132 537.688 133.924 536.464V538H136.516V526H133.924V532.432ZM142.139 526H139.547V538H142.139V531.952C142.139 530.728 142.499 529.84 143.243 529.312C143.987 528.76 144.851 528.52 145.835 528.592V525.784C144.035 525.784 142.787 526.528 142.139 528.016V526ZM163.758 521.2H153.918V538H156.678V531.184H163.518V528.544H156.678V523.84H163.758V521.2ZM175.676 527.704C174.692 526.36 173.3 525.688 171.476 525.688C169.82 525.688 168.428 526.288 167.252 527.512C166.076 528.736 165.5 530.224 165.5 532C165.5 533.752 166.076 535.264 167.252 536.488C168.428 537.712 169.82 538.312 171.476 538.312C173.3 538.312 174.692 537.64 175.676 536.272V538H178.268V526H175.676V527.704ZM169.172 534.76C168.452 534.016 168.092 533.104 168.092 532C168.092 530.896 168.452 529.984 169.172 529.264C169.892 528.52 170.804 528.16 171.884 528.16C172.964 528.16 173.876 528.52 174.596 529.264C175.316 529.984 175.676 530.896 175.676 532C175.676 533.104 175.316 534.016 174.596 534.76C173.876 535.48 172.964 535.84 171.884 535.84C170.804 535.84 169.892 535.48 169.172 534.76ZM186.089 535.12L182.729 526H179.897L184.577 538H187.577L192.257 526H189.425L186.089 535.12ZM199.094 538.312C200.87 538.312 202.358 537.712 203.582 536.488C204.806 535.264 205.43 533.776 205.43 532C205.43 530.224 204.806 528.736 203.582 527.512C202.358 526.288 200.87 525.688 199.094 525.688C197.342 525.688 195.83 526.288 194.606 527.512C193.382 528.736 192.758 530.224 192.758 532C192.758 533.776 193.382 535.264 194.606 536.488C195.83 537.712 197.342 538.312 199.094 538.312ZM196.43 534.712C195.71 533.992 195.35 533.08 195.35 532C195.35 530.92 195.71 530.008 196.43 529.288C197.15 528.568 198.038 528.208 199.094 528.208C200.15 528.208 201.038 528.568 201.758 529.288C202.478 530.008 202.838 530.92 202.838 532C202.838 533.08 202.478 533.992 201.758 534.712C201.038 535.432 200.15 535.792 199.094 535.792C198.038 535.792 197.15 535.432 196.43 534.712ZM215.862 532.432C215.862 534.76 214.638 535.888 212.814 535.888C211.158 535.888 210.126 534.904 210.126 533.104V526H207.534V533.368C207.534 536.44 209.382 538.312 212.142 538.312C213.846 538.312 215.07 537.688 215.862 536.464V538H218.454V526H215.862V532.432ZM224.077 526H221.485V538H224.077V531.952C224.077 530.728 224.437 529.84 225.181 529.312C225.925 528.76 226.789 528.52 227.773 528.592V525.784C225.973 525.784 224.725 526.528 224.077 528.016V526ZM232.136 523.72C232.808 523.048 232.808 522.04 232.16 521.392C231.512 520.72 230.456 520.72 229.808 521.392C229.16 522.04 229.16 523.048 229.808 523.72C230.48 524.368 231.488 524.368 232.136 523.72ZM232.28 538V526H229.688V538H232.28ZM241.985 526H239.009V522.64L236.417 523.408V526H234.209V528.496H236.417V534.256C236.417 537.4 238.025 538.48 241.985 538V535.672C240.017 535.768 239.009 535.792 239.009 534.256V528.496H241.985V526ZM255.436 533.104C255.508 532.648 255.532 532.288 255.532 532.024C255.532 530.272 254.956 528.76 253.828 527.536C252.7 526.312 251.26 525.688 249.508 525.688C247.66 525.688 246.124 526.288 244.948 527.512C243.772 528.712 243.172 530.2 243.172 532C243.172 533.824 243.772 535.336 244.972 536.536C246.172 537.712 247.756 538.312 249.7 538.312C252.028 538.312 253.78 537.448 254.956 535.696L252.82 534.448C252.124 535.432 251.092 535.936 249.724 535.936C247.732 535.936 246.268 534.928 245.884 533.104H255.436ZM245.86 530.992C246.22 529.168 247.564 528.04 249.484 528.04C251.188 528.04 252.556 529.048 252.916 530.992H245.86ZM273.821 521.2H263.981V538H266.741V531.184H273.581V528.544H266.741V523.84H273.821V521.2ZM281.899 538.312C283.675 538.312 285.163 537.712 286.387 536.488C287.611 535.264 288.235 533.776 288.235 532C288.235 530.224 287.611 528.736 286.387 527.512C285.163 526.288 283.675 525.688 281.899 525.688C280.147 525.688 278.635 526.288 277.411 527.512C276.187 528.736 275.563 530.224 275.563 532C275.563 533.776 276.187 535.264 277.411 536.488C278.635 537.712 280.147 538.312 281.899 538.312ZM279.235 534.712C278.515 533.992 278.155 533.08 278.155 532C278.155 530.92 278.515 530.008 279.235 529.288C279.955 528.568 280.843 528.208 281.899 528.208C282.955 528.208 283.843 528.568 284.563 529.288C285.283 530.008 285.643 530.92 285.643 532C285.643 533.08 285.283 533.992 284.563 534.712C283.843 535.432 282.955 535.792 281.899 535.792C280.843 535.792 279.955 535.432 279.235 534.712ZM296.242 538.312C298.018 538.312 299.506 537.712 300.73 536.488C301.954 535.264 302.578 533.776 302.578 532C302.578 530.224 301.954 528.736 300.73 527.512C299.506 526.288 298.018 525.688 296.242 525.688C294.49 525.688 292.978 526.288 291.754 527.512C290.53 528.736 289.906 530.224 289.906 532C289.906 533.776 290.53 535.264 291.754 536.488C292.978 537.712 294.49 538.312 296.242 538.312ZM293.578 534.712C292.858 533.992 292.498 533.08 292.498 532C292.498 530.92 292.858 530.008 293.578 529.288C294.298 528.568 295.186 528.208 296.242 528.208C297.298 528.208 298.186 528.568 298.906 529.288C299.626 530.008 299.986 530.92 299.986 532C299.986 533.08 299.626 533.992 298.906 534.712C298.186 535.432 297.298 535.792 296.242 535.792C295.186 535.792 294.298 535.432 293.578 534.712ZM314.426 527.704C313.442 526.36 312.05 525.688 310.226 525.688C308.57 525.688 307.178 526.288 306.002 527.512C304.826 528.736 304.25 530.224 304.25 532C304.25 533.752 304.826 535.264 306.002 536.488C307.178 537.712 308.57 538.312 310.226 538.312C312.05 538.312 313.442 537.64 314.426 536.272V538H317.018V521.2H314.426V527.704ZM307.922 534.76C307.202 534.016 306.842 533.104 306.842 532C306.842 530.896 307.202 529.984 307.922 529.264C308.642 528.52 309.554 528.16 310.634 528.16C311.714 528.16 312.626 528.52 313.346 529.264C314.066 529.984 314.426 530.896 314.426 532C314.426 533.104 314.066 534.016 313.346 534.76C312.626 535.48 311.714 535.84 310.634 535.84C309.554 535.84 308.642 535.48 307.922 534.76ZM322.607 532.72L323.159 526V521.2H320.039V526L320.567 532.72H322.607ZM321.599 534.688C320.567 534.688 319.799 535.504 319.799 536.488C319.799 537.472 320.615 538.288 321.599 538.288C322.583 538.288 323.399 537.472 323.399 536.488C323.399 535.504 322.583 534.688 321.599 534.688Z" fill="#111A2C"/>
<g clip-path="url(#clip0_1_819)">
<path d="M187 459C246.443 459 294.631 455.614 294.631 451.437C294.631 447.26 246.443 443.874 187 443.874C127.557 443.874 79.3692 447.26 79.3692 451.437C79.3692 455.614 127.557 459 187 459Z" fill="#F1F1F1"/>
<path d="M298.354 165.039L253.862 156L252.569 162.087L252.754 162.272L233 256.715L239.277 258.007L259.031 163.378L297.062 171.126L298.354 165.039Z" fill="#FFF6F8"/>
<path d="M260.323 163.747L259.031 163.378L258.477 165.776C256.446 163.747 254.6 161.903 253.123 159.874L253.862 156.369C255.523 158.767 257.738 161.165 260.323 163.747Z" fill="#FF4A32"/>
<path d="M266.046 164.854L262.723 164.116C261.431 161.718 260.508 159.32 259.585 157.107L262.723 157.66C263.646 160.058 264.569 162.456 266.046 164.854Z" fill="#FF4A32"/>
<path d="M274.723 166.699L271.4 165.961C270.108 163.563 269 161.165 268.077 158.951L271.215 159.505C272.138 161.718 273.431 164.116 274.723 166.699Z" fill="#FF4A32"/>
<path d="M283.585 168.543L280.077 167.806C278.6 165.408 277.492 163.01 276.569 160.612L279.892 161.349C280.815 163.563 282.108 165.961 283.585 168.543Z" fill="#FF4A32"/>
<path d="M292.631 170.388L288.938 169.65C287.462 167.068 286.169 164.67 285.062 162.456L288.385 163.194C289.492 165.407 290.969 167.805 292.631 170.388Z" fill="#FF4A32"/>
<path d="M297.985 166.33L297.246 170.388C295.954 168.174 294.846 166.145 293.923 164.116L297.246 164.854C297.431 165.407 297.615 165.776 297.985 166.33Z" fill="#FF4A32"/>
<path d="M257.185 171.679L256.446 174.815C254.415 172.97 252.754 170.941 251.092 169.097L251.831 165.592C253.492 167.621 255.154 169.65 257.185 171.679Z" fill="#FF4A32"/>
<path d="M255.338 180.718L254.6 183.853C252.569 182.009 250.908 179.98 249.246 178.135L249.985 174.63C251.646 176.659 253.308 178.688 255.338 180.718Z" fill="#FF4A32"/>
<path d="M253.492 189.756L252.938 192.892C250.908 190.863 249.246 189.018 247.585 187.174L248.323 183.669C249.8 185.698 251.462 187.727 253.492 189.756Z" fill="#FF4A32"/>
<path d="M251.646 198.795L251.092 201.931C249.062 200.086 247.4 198.057 245.738 196.212L246.477 192.708C247.769 194.737 249.615 196.766 251.646 198.795Z" fill="#FF4A32"/>
<path d="M249.615 207.833L248.877 210.969C246.846 208.94 245.185 207.095 243.523 205.251L244.262 201.746C245.923 203.775 247.585 205.804 249.615 207.833Z" fill="#FF4A32"/>
<path d="M247.585 217.61L247.031 220.008C245 218.163 243.338 216.134 241.862 214.29L242.415 211.338C243.708 213.183 245.185 215.027 246.846 216.872C247.215 217.056 247.4 217.425 247.585 217.61Z" fill="#FF4A32"/>
<path d="M245.923 225.91L245.185 229.046C243.154 227.202 241.492 225.173 239.831 223.328L240.569 219.823C242.231 221.852 243.892 223.881 245.923 225.91Z" fill="#FF4A32"/>
<path d="M243.892 235.133L243.154 238.085V238.269C243.154 238.269 243.154 238.269 243.154 238.085C241.492 236.24 239.646 234.396 237.985 232.735C237.8 232.551 237.8 232.551 237.615 232.367L238.538 228.862L238.723 229.046C240.2 231.075 241.862 232.92 243.892 235.133C243.892 235.133 243.892 234.949 243.892 235.133Z" fill="#FF4A32"/>
<path d="M242.046 244.172L241.308 247.308C239.462 245.463 237.8 243.619 236.138 241.774C235.954 241.59 235.954 241.59 235.769 241.405L236.692 237.9L236.877 238.085C238.354 240.114 240.015 241.959 242.046 244.172C242.046 244.172 242.046 243.988 242.046 244.172Z" fill="#FF4A32"/>
<path d="M257.369 156.738L236.692 248.968L234.662 248.599L235.954 241.774L235.769 241.405L236.692 238.085L236.877 237.9L237.8 232.735L237.615 232.367L238.538 229.046L238.723 228.862L239.831 223.328L240.569 219.823L241.862 214.289L242.415 211.338L242.6 210.785L243.708 205.251L244.446 201.746L245.554 196.212L246.292 192.708L247.585 187.174L248.138 183.669L249.431 178.135L250.169 174.63L251.277 169.097L252.015 165.592L252.754 162.272L252.569 162.087L253.123 159.874L253.862 156.369V156L257.369 156.738Z" fill="#9FBFD4" style="mix-blend-mode:multiply"/>
<path d="M288.723 392.779H213.031L197.338 227.318H304.415L288.723 392.779Z" fill="#FFF6F8"/>
<path d="M297.769 297.044C294.262 294.831 290.385 293.355 286.138 292.801C271.738 291.326 266.569 304.422 254.015 301.656C237.4 297.966 239.246 273.064 218.2 252.958C212.477 247.424 205.646 242.997 198.631 239.492L205.831 315.306C218.2 324.713 235 333.752 251.985 329.878C270.077 325.82 273.215 310.325 288.354 310.51C291.123 310.51 293.892 311.247 296.477 312.17L297.769 297.044Z" fill="#FF4A32"/>
<path d="M198.077 233.405H303.862L304.415 227.318H197.338L198.077 233.405Z" fill="#DEDEDE"/>
<path d="M307 217.542H193.277V229.9H307V217.542Z" fill="#FFF6F8"/>
<path d="M279.677 210.717H220.6V219.94H279.677V210.717Z" fill="#FFF6F8"/>
<path d="M250.323 382.08C223.738 351.46 225.769 314.014 229.462 247.609C229.831 239.861 230.938 230.454 237.769 225.289C242.754 221.415 249.954 220.493 249.769 218.648C249.585 217.173 244.231 217.911 241.092 214.59C240.169 213.484 239.615 212.192 239.246 210.901H220.6V217.911H193.277V230.269H197.708L213.031 392.963H261.4C257.708 389.828 254.015 386.323 250.323 382.08Z" fill="#9FBFD4" style="mix-blend-mode:multiply"/>
<path d="M141.769 316.042L163.923 231.375L174.262 233.958L177.954 236.171L155.985 320.838L145.646 318.256L141.769 316.042Z" fill="#E6C82E"/>
<path d="M141.809 316.148L152.172 318.84L174.235 234.043L163.872 231.351L141.809 316.148Z" fill="#D4942A"/>
<path d="M175 245.395C173.708 253.142 170.754 260.705 170.015 260.336C170.015 260.336 169.831 260.152 169.831 258.492C170.385 250.191 174.631 239.492 175.554 239.861C175.923 240.046 175.554 242.628 175 245.395Z" fill="#EDE92F"/>
<path d="M169.277 264.025C169.462 265.87 168.169 269.559 167.431 270.481C167.431 270.666 167.246 270.666 166.877 270.481C165.585 269.559 167.8 264.025 168.723 263.103C169.092 262.734 169.277 263.287 169.277 264.025Z" fill="#EDE92F"/>
<path d="M151.369 297.228L141.215 210.163L151.923 209.056L156.169 209.61L166.323 296.675L155.615 297.782L151.369 297.228Z" fill="#E6C82E"/>
<path d="M151.31 297.315L161.946 296.079L151.809 209.047L141.173 210.284L151.31 297.315Z" fill="#D4942A"/>
<path d="M156.723 219.202C158.2 226.764 158.2 234.881 157.461 235.065C157.461 235.065 157.277 234.881 156.723 233.405C154.323 225.473 154.323 214.037 155.246 214.037C155.615 214.037 156.169 216.619 156.723 219.202Z" fill="#EDE92F"/>
<path d="M158.2 238.754C159.123 240.414 159.123 244.473 158.754 245.395C158.754 245.579 158.569 245.764 158.2 245.579C156.723 245.026 156.723 239.308 157.277 238.201C157.462 237.648 157.831 238.201 158.2 238.754Z" fill="#EDE92F"/>
<path d="M100.785 290.957L86.3846 204.445L75.8615 206.289L71.8 208.134L86.3846 294.461L96.9077 292.617L100.785 290.957Z" fill="#D4942A"/>
<path d="M86.4379 204.518L75.878 206.291L90.4086 292.701L100.969 290.928L86.4379 204.518Z" fill="#E6C82E"/>
<path d="M80.6615 213.114C80.6615 221.046 84.1692 228.609 85.6461 228.24C85.8308 228.24 86.2 228.056 86.5692 226.211C88.4154 217.541 83.2461 207.027 81.5846 207.396C80.4769 207.765 80.4769 210.348 80.6615 213.114Z" fill="#EDE92F"/>
<path d="M85.6461 232.114C84.3538 234.143 86.0154 237.832 87.3077 238.57C87.4923 238.754 87.8615 238.754 88.4154 238.57C91.3692 237.463 88.7846 231.929 87.3077 231.192C86.5692 230.638 86.2 231.376 85.6461 232.114Z" fill="#EDE92F"/>
<path d="M104.477 273.617L99.4923 185.999L110.015 185.445L114.262 186.368L119.246 273.802L108.538 274.355L104.477 273.617Z" fill="#E6C82E"/>
<path d="M104.356 273.614L115.047 273.01L110.101 185.532L99.4101 186.135L104.356 273.614Z" fill="#D4942A"/>
<path d="M114.262 195.959C115.369 203.707 114.815 211.823 114.077 211.823C114.077 211.823 113.892 211.639 113.338 209.978C111.308 201.862 112.231 190.426 112.969 190.61C113.523 190.61 113.892 193.377 114.262 195.959Z" fill="#EDE92F"/>
<path d="M114.631 215.512C115.554 217.172 115.185 221.231 114.815 222.153C114.815 222.337 114.631 222.522 114.261 222.337C112.785 221.784 113.154 216.066 113.708 214.774C114.077 214.406 114.261 214.959 114.631 215.512Z" fill="#EDE92F"/>
<path d="M140.477 280.073L124.969 193.931L135.492 192.086L139.738 192.455L155.431 278.598L144.908 280.442L140.477 280.073Z" fill="#E6C82E"/>
<path d="M140.448 280.156L150.985 278.258L135.429 192.032L124.891 193.93L140.448 280.156Z" fill="#D4942A"/>
<path d="M141.031 201.862C143.062 209.425 143.431 217.541 142.877 217.541C142.877 217.541 142.508 217.541 141.954 215.881C139 208.134 138.446 196.697 139.369 196.697C139.554 196.697 140.292 199.28 141.031 201.862Z" fill="#EDE92F"/>
<path d="M143.615 221.415C144.723 223.075 144.908 226.949 144.538 228.055C144.538 228.24 144.354 228.424 144.169 228.24C142.692 227.871 142.323 222.153 142.692 220.862C142.877 220.308 143.246 220.862 143.615 221.415Z" fill="#EDE92F"/>
<path d="M76.7846 325.265L71.8 237.831L82.5077 237.093L86.7538 238.015L91.5538 325.449L81.0308 326.003L76.7846 325.265Z" fill="#E6C82E"/>
<path d="M76.7485 325.166L87.4391 324.563L82.4927 237.085L71.8021 237.688L76.7485 325.166Z" fill="#D4942A"/>
<path d="M86.7538 247.608C87.8615 255.356 87.3077 263.472 86.5692 263.472C86.5692 263.472 86.3846 263.288 85.8308 261.627C83.8 253.511 84.7231 242.075 85.4615 242.259C86.0154 242.443 86.3846 245.026 86.7538 247.608Z" fill="#EDE92F"/>
<path d="M86.9385 267.346C87.8615 269.006 87.4923 273.064 87.1231 273.986C87.1231 274.171 86.9385 274.355 86.5692 274.171C85.0923 273.617 85.4615 267.899 86.0154 266.608C86.3846 266.054 86.7538 266.608 86.9385 267.346Z" fill="#EDE92F"/>
<path d="M153.031 329.14L147.308 241.89L136.6 242.444L132.538 243.919L138.262 331.353L148.969 330.616L153.031 329.14Z" fill="#D4942A"/>
<path d="M147.355 241.814L136.671 242.52L142.458 329.946L153.142 329.24L147.355 241.814Z" fill="#E6C82E"/>
<path d="M140.662 249.822C139.923 257.569 142.508 265.501 143.985 265.501C144.169 265.501 144.538 265.317 145.092 263.657C147.677 255.356 143.8 244.104 141.954 244.473C141.215 244.473 141.031 247.055 140.662 249.822Z" fill="#EDE92F"/>
<path d="M143.985 269.19C142.508 271.035 143.8 274.909 144.908 275.831C145.092 276.015 145.277 276.2 146.015 276.015C148.969 275.093 147.123 269.559 145.646 268.453C144.908 267.899 144.538 268.637 143.985 269.19Z" fill="#EDE92F"/>
<path d="M128.292 279.705L129.031 192.086H118.508L114.262 193.008L113.338 280.627L124.046 280.811L128.292 279.705Z" fill="#D4942A"/>
<path d="M129.078 192.14L118.37 192.039L117.543 279.657L128.25 279.758L129.078 192.14Z" fill="#E6C82E"/>
<path d="M122.015 199.649C120.723 207.396 122.754 215.512 124.231 215.512C124.415 215.512 124.785 215.328 125.523 213.668C128.846 205.551 125.708 194.115 123.862 194.299C122.754 194.299 122.385 196.882 122.015 199.649Z" fill="#EDE92F"/>
<path d="M123.677 219.201C122.2 220.862 122.938 224.92 124.046 225.842C124.231 226.026 124.415 226.211 125.154 226.026C128.292 225.473 126.815 219.57 125.338 218.464C124.785 217.91 124.231 218.648 123.677 219.201Z" fill="#EDE92F"/>
<path d="M131.985 298.335L145.462 211.823L134.938 210.163L130.692 210.532L117.031 297.044L127.738 298.704L131.985 298.335Z" fill="#D4942A"/>
<path d="M145.525 211.878L134.947 210.222L121.372 296.78L131.951 298.436L145.525 211.878Z" fill="#E6C82E"/>
<path d="M137.338 218.095C134.938 225.473 135.677 233.774 137.154 234.143C137.339 234.143 137.708 234.143 138.631 232.483C143.062 224.92 141.585 213.114 139.739 212.93C139 212.93 138.262 215.512 137.338 218.095Z" fill="#EDE92F"/>
<path d="M136.231 237.832C134.385 239.308 134.754 243.366 135.677 244.473C135.862 244.657 136.046 244.841 136.6 244.841C139.738 244.657 139.185 238.754 137.892 237.463C137.523 236.725 136.785 237.279 136.231 237.832Z" fill="#EDE92F"/>
<path d="M106.508 287.636L86.3846 202.231L96.9077 199.833L101.154 200.018L121.277 285.238L110.754 287.636H106.508Z" fill="#E6C82E"/>
<path d="M106.425 287.622L116.85 285.179L96.8298 199.874L86.4048 202.316L106.425 287.622Z" fill="#D4942A"/>
<path d="M102.815 209.425C105.215 216.804 106.138 224.92 105.4 225.104C105.4 225.104 105.031 225.104 104.477 223.444C101.154 215.881 99.8615 204.445 100.785 204.445C101.154 204.26 102.077 206.843 102.815 209.425Z" fill="#EDE92F"/>
<path d="M106.508 228.609C107.615 230.085 108.169 234.143 107.8 235.065C107.8 235.25 107.615 235.434 107.431 235.434C105.954 235.065 105.215 229.347 105.585 228.056C105.769 227.687 106.138 228.24 106.508 228.609Z" fill="#EDE92F"/>
<path d="M100.231 308.48L113.892 221.968L103.369 220.308L99.1231 220.677L85.4615 307.189L95.9846 308.849L100.231 308.48Z" fill="#D4942A"/>
<path d="M113.979 221.854L103.401 220.198L89.826 306.756L100.404 308.413L113.979 221.854Z" fill="#E6C82E"/>
<path d="M105.769 228.24C103.369 235.618 104.108 243.919 105.585 244.288C105.769 244.288 106.138 244.288 107.062 242.628C111.492 235.065 110.015 223.26 108.169 223.075C107.431 223.075 106.508 225.658 105.769 228.24Z" fill="#EDE92F"/>
<path d="M104.662 247.793C102.815 249.269 103.185 253.327 104.108 254.434C104.292 254.618 104.477 254.802 105.031 254.802C108.169 254.618 107.615 248.715 106.323 247.424C105.769 246.871 105.215 247.424 104.662 247.793Z" fill="#EDE92F"/>
<path d="M159.862 404.584H79.9231L67 277.676H172.785L159.862 404.584Z" fill="#FF4A32"/>
<path d="M159.862 403.846C136.046 390.196 109.646 369.906 98.9385 337.072C91.7385 314.937 93.9538 293.724 94.8769 277.676H67L79.9231 404.584H159.862V403.846Z" fill="#E8312E"/>
<path d="M119.8 378.206C131.933 378.206 141.769 363.341 141.769 345.003C141.769 326.666 131.933 311.801 119.8 311.801C107.667 311.801 97.8307 326.666 97.8307 345.003C97.8307 363.341 107.667 378.206 119.8 378.206Z" fill="#FFF6F8"/>
<path d="M119.8 378.206C121.277 378.206 122.938 378.022 124.415 377.468C113.523 366.585 104.477 353.489 99.1231 337.072C98.9384 336.703 98.9384 336.334 98.7538 335.965C98.2 338.916 97.8307 341.868 97.8307 345.003C97.8307 363.449 107.615 378.206 119.8 378.206Z" fill="#FFDCCB"/>
<path d="M255.862 450.146H115C103.185 450.146 93.7692 440.554 93.7692 428.933V427.273H277.092V428.933C277.092 440.554 267.492 450.146 255.862 450.146Z" fill="#FFAD4B"/>
<path d="M277.092 427.273H93.7692V436.68C95.9846 437.234 99.4923 434.098 105.215 433.545C115.738 432.622 118.877 442.03 129.215 441.476C137.154 441.108 136.969 435.758 144.723 435.574C154.692 435.389 157.831 444.612 167.062 443.505C173.338 442.768 173.154 438.341 179.246 437.603C189.4 436.496 194.015 447.564 202.692 445.535C208.046 444.243 207.308 439.816 212.846 438.525C221.154 436.68 225.769 446.272 233.154 444.428C238.877 442.952 238.138 436.312 243.862 434.836C252.354 432.438 261.215 445.535 265.646 442.768C268.415 440.923 265.831 435.02 269.338 432.622C271.554 431.147 274.692 432.438 277.092 432.991V427.273Z" fill="#DE7441"/>
<path d="M93.7692 428.749V439.632C93.7692 445.535 98.5692 450.146 104.292 450.146H166.323C163.369 449.039 160.969 447.564 160.231 445.166C158.938 440.554 165.585 437.418 164.846 433.914C164.108 430.593 156.908 428.38 146.569 427.273H105.4C101.338 427.642 97.4615 428.195 93.7692 428.749Z" fill="#DE7441"/>
<path d="M94.5077 420.817C94.1384 421.739 90.2615 430.224 92.8461 432.622C94.8769 434.467 98.5692 430.409 105.031 430.04C115.554 429.117 118.692 438.525 129.031 437.971C136.969 437.603 136.785 432.253 144.538 432.069C154.508 431.884 157.646 441.107 166.877 440.001C173.154 439.263 172.969 434.836 179.062 434.098C189.215 432.991 193.831 444.059 202.508 442.03C207.862 440.738 207.123 436.311 212.662 435.02C220.969 433.176 225.585 442.767 232.969 440.923C238.692 439.447 237.954 432.807 243.677 431.331C252.169 428.933 261.031 442.03 265.462 439.263C268.231 437.418 265.646 431.515 269.154 429.117C272.662 426.719 278.015 430.962 279.862 429.117C281.708 427.088 277.462 420.448 277.277 420.079C263.615 399.235 107.985 391.487 94.5077 420.817Z" fill="#7FCF33"/>
<path d="M94.5077 420.817C94.3231 421.37 92.8461 424.322 92.2923 427.273C92.4769 427.642 92.6615 428.011 92.8461 428.195C94.8769 430.04 98.5692 425.982 105.031 425.613C115.554 424.69 118.692 434.098 129.031 433.545C136.969 433.176 136.785 427.826 144.538 427.642C154.508 427.457 157.646 436.68 166.877 435.574C173.154 434.836 172.969 430.409 179.062 429.671C189.215 428.564 193.831 439.632 202.508 437.603C207.862 436.311 207.123 431.884 212.662 430.593C220.969 428.749 225.585 438.341 232.969 436.496C238.692 435.02 237.954 428.38 243.677 426.904C252.169 424.506 261.031 437.603 265.462 434.836C268.231 432.991 265.646 427.088 269.154 424.69C272.662 422.477 277.831 426.351 279.677 424.875C278.754 422.477 277.277 420.079 277.092 419.894C263.615 399.235 107.985 391.488 94.5077 420.817Z" fill="#76BF2F"/>
<path d="M277.092 419.894C273.031 414.361 259.369 409.749 241.277 406.613C201.031 404.769 140.292 406.798 106.692 411.04C100.6 413.623 96.3539 416.943 94.5077 420.817C94.3231 421.186 93.7692 422.292 93.2154 423.768C94.1385 424.137 95.2462 424.321 95.9846 424.506C103.185 426.166 106.692 424.69 118.138 425.244C124.231 425.613 125.523 426.166 131.8 426.904C144.169 428.195 148.969 427.273 163 427.088C176.846 427.088 174.631 428.195 197.708 428.933C209.708 429.302 217.092 429.671 227.246 429.117C236.108 428.748 239.062 428.195 242.015 427.642C242.569 427.273 243.123 427.088 243.677 426.904C244.969 426.535 246.262 426.535 247.554 426.719C249.769 426.535 252.538 426.166 256.6 425.982C261.954 425.797 267.492 425.613 273.031 422.292C274.139 422.108 275.615 421.001 277.092 419.894Z" fill="#549E27"/>
<path d="M163.369 438.894C165.585 440.001 167.8 439.078 168.723 438.71C171.123 437.787 172.785 435.574 172.6 435.389C172.415 435.205 171.308 436.496 169.092 437.049C165.031 438.156 161.523 435.758 161.154 436.312C160.785 436.865 161.892 438.156 163.369 438.894Z" fill="#A6F03A"/>
<path d="M197.708 440.554C199.923 441.661 202.138 440.739 203.062 440.37C205.462 439.447 207.123 437.234 206.938 437.049C206.754 436.865 205.646 438.156 203.431 438.71C199.369 439.816 195.862 437.418 195.492 437.972C195.123 438.525 196.415 439.816 197.708 440.554Z" fill="#A6F03A"/>
<path d="M227.985 439.447C230.2 440.554 232.415 439.632 233.338 439.263C235.738 438.34 237.4 436.127 237.215 435.942C237.031 435.758 235.923 437.049 233.708 437.603C229.646 438.709 226.138 436.311 225.769 436.865C225.4 437.418 226.508 438.709 227.985 439.447Z" fill="#A6F03A"/>
<path d="M263.062 437.787C260.662 437.972 258.815 436.496 258.077 435.943C256.046 434.282 255.123 431.884 255.492 431.7C255.677 431.515 256.415 433.176 258.262 434.282C261.769 436.68 265.831 435.574 266.015 436.311C266.2 437.049 264.538 437.787 263.062 437.787Z" fill="#A6F03A"/>
<path d="M278.015 428.195C276.354 428.749 274.877 427.826 274.323 427.642C272.662 426.72 271.738 425.244 271.923 425.244C272.108 425.059 272.846 425.982 274.138 426.72C276.908 427.826 279.492 426.535 279.677 427.088C280.046 427.088 278.938 427.826 278.015 428.195Z" fill="#A6F03A"/>
<path d="M203.431 410.856C203.431 407.351 180.538 404.4 152.477 404.4C124.415 404.4 101.523 407.351 101.523 410.856C101.523 411.963 101.523 415.467 101.523 416.574C101.523 420.079 124.415 423.03 152.477 423.03C180.538 423.03 203.431 420.079 203.431 416.574C203.431 415.652 203.431 411.963 203.431 410.856Z" fill="#FF4A32"/>
<path d="M194.754 418.419C191.062 420.079 185.708 419.157 185.523 418.419C185.154 417.312 196.231 414.914 197.338 416.021C197.892 416.39 196.231 417.681 194.754 418.419Z" fill="#FFF6F8"/>
<path d="M152.477 417.312C180.618 417.312 203.431 414.421 203.431 410.856C203.431 407.29 180.618 404.4 152.477 404.4C124.336 404.4 101.523 407.29 101.523 410.856C101.523 414.421 124.336 417.312 152.477 417.312Z" fill="#E0412C"/>
<path d="M180.538 420.263C180.908 421.001 182.015 421.186 182.938 420.632C183.492 420.263 183.862 419.341 183.677 418.603C183.492 417.865 182.754 417.497 182.015 417.497C180.908 417.497 179.985 419.341 180.538 420.263Z" fill="#FFF6F8"/>
<path d="M201.954 409.38C201.954 409.38 202.138 409.38 202.138 409.565C202.138 409.565 202.138 409.38 201.954 409.38Z" fill="#BF3930"/>
<path d="M202.508 409.749C202.508 409.749 202.692 409.749 202.692 409.934C202.692 409.749 202.692 409.749 202.508 409.749Z" fill="#BF3930"/>
<path d="M201.215 409.011C201.4 409.011 201.4 409.011 201.585 409.196C201.4 409.196 201.4 409.196 201.215 409.011Z" fill="#BF3930"/>
<path d="M200.477 408.827C200.662 408.827 200.662 408.827 200.846 409.011C200.662 408.827 200.662 408.827 200.477 408.827Z" fill="#BF3930"/>
<path d="M199.554 408.458C199.738 408.458 199.738 408.458 199.923 408.642C199.738 408.458 199.554 408.458 199.554 408.458Z" fill="#BF3930"/>
<path d="M165.585 417.127C165.769 418.234 166.138 421.739 166.323 422.846C187.738 422.108 203.431 419.525 203.431 416.759C203.431 415.652 203.431 412.147 203.431 411.04C203.431 413.807 187.369 416.39 165.585 417.127Z" fill="#DB372B"/>
<path d="M202.692 409.934L202.877 410.118C202.877 409.934 202.877 409.934 202.692 409.934Z" fill="#E0412C"/>
<path d="M200.846 408.827C201.031 408.827 201.215 409.011 201.4 409.011C201.215 409.011 201.031 409.011 200.846 408.827Z" fill="#E0412C"/>
<path d="M198.631 408.273C199 408.273 199.185 408.458 199.554 408.458C199.185 408.273 199 408.273 198.631 408.273Z" fill="#E0412C"/>
<path d="M199.923 408.458C200.108 408.458 200.292 408.642 200.477 408.642C200.292 408.642 200.108 408.642 199.923 408.458Z" fill="#E0412C"/>
<path d="M203.062 410.118L203.246 410.303C203.246 410.303 203.246 410.303 203.062 410.118Z" fill="#E0412C"/>
<path d="M202.323 409.565C202.508 409.565 202.508 409.749 202.692 409.749C202.508 409.749 202.323 409.565 202.323 409.565Z" fill="#E0412C"/>
<path d="M201.585 409.196C201.769 409.196 201.769 409.38 201.954 409.38C201.769 409.38 201.769 409.196 201.585 409.196Z" fill="#E0412C"/>
<path d="M203.431 410.487C203.246 410.487 203.246 410.487 203.431 410.487C203.246 410.303 203.246 410.303 203.246 410.118C203.246 410.118 203.246 410.118 203.062 409.934L202.877 409.749C202.877 409.749 202.692 409.749 202.692 409.565C202.508 409.565 202.508 409.38 202.323 409.38C202.323 409.38 202.138 409.38 202.138 409.196C201.954 409.196 201.954 409.011 201.769 409.011C201.585 409.011 201.585 409.011 201.4 408.827C201.215 408.827 201.031 408.642 200.846 408.642C200.662 408.642 200.662 408.642 200.477 408.458C200.292 408.458 200.108 408.273 199.923 408.273C199.738 408.273 199.738 408.273 199.554 408.089C199.369 408.089 199 407.905 198.631 407.905H198.446C178.877 410.487 165.215 414.176 165.585 416.943C187.369 416.205 203.431 413.807 203.431 410.671C203.431 410.856 203.431 410.671 203.431 410.487Z" fill="#BF3930"/>
<path d="M270.631 408.273C270.262 404.769 247.185 403.846 219.123 406.429C191.062 408.827 168.723 413.807 169.277 417.312C169.462 418.419 169.831 421.923 170.015 423.03C170.385 426.535 193.462 427.457 221.523 424.875C249.585 422.477 271.923 417.496 271.369 413.992C271.185 412.885 270.815 409.196 270.631 408.273Z" fill="#FF4A32"/>
<path d="M263.061 416.39C259.738 418.234 254.2 417.865 253.831 417.127C253.277 416.021 264.169 412.7 265.277 413.807C265.831 414.176 264.354 415.652 263.061 416.39Z" fill="#FFF6F8"/>
<path d="M270.631 408.273C271 411.778 248.662 416.574 220.785 419.156C192.723 421.554 169.831 420.817 169.277 417.312C168.908 413.807 191.246 409.011 219.123 406.429C247.185 403.846 270.262 404.769 270.631 408.273Z" fill="#E0412C"/>
<path d="M249.031 419.525C249.4 420.263 250.692 420.263 251.431 419.71C251.8 419.341 252.354 418.419 251.985 417.681C251.615 416.943 250.877 416.574 250.323 416.758C249.031 416.758 248.477 418.603 249.031 419.525Z" fill="#FFF6F8"/>
<path d="M212.108 408.458C212.108 408.458 179.615 411.409 177.585 414.729C175.554 418.05 197.892 418.234 210.262 417.865C222.631 417.496 215.431 415.652 211.923 413.623C208.6 411.409 221.338 407.72 212.108 408.458Z" fill="#DB372B"/>
<path opacity="0.39" d="M219.308 406.244C212.292 406.798 205.646 407.535 199.738 408.458C192.169 406.06 173.892 404.4 152.477 404.4C124.415 404.4 101.523 407.351 101.523 410.856C101.523 412.885 108.723 414.545 119.985 415.836H246.815C261.4 413.438 271 410.487 270.815 408.273C270.262 404.769 247.185 403.846 219.308 406.244Z" fill="#85321A"/>
<path d="M260.292 411.594H111.677C101.892 411.594 94.1385 403.662 94.1385 394.07C94.1385 384.294 102.077 376.546 111.677 376.546H260.292C270.077 376.546 277.831 384.478 277.831 394.07C277.831 403.662 270.077 411.594 260.292 411.594Z" fill="#D64F2A"/>
<path d="M262.508 376.362H106.508C99.4923 376.362 93.9539 381.896 93.9539 388.905V399.05C93.9539 406.06 99.4923 411.594 106.508 411.594H119.246C118.877 410.118 118.877 408.642 119.431 406.982C123.862 394.439 163 398.866 191.8 399.419C212.662 399.788 242.015 398.313 277.831 390.012C276.908 382.265 270.262 376.362 262.508 376.362Z" fill="#A33C20"/>
<path d="M103.442 367.619L92.6841 374.434L126.692 428.022L137.45 421.206L103.442 367.619Z" fill="#85321A"/>
<path d="M137.059 367.601L126.301 374.418L160.316 428.006L171.073 421.189L137.059 367.601Z" fill="#85321A"/>
<path d="M170.635 367.599L159.877 374.415L193.885 428.002L204.643 421.186L170.635 367.599Z" fill="#85321A"/>
<path d="M204.252 367.576L193.494 374.393L227.509 427.98L238.267 421.163L204.252 367.576Z" fill="#85321A"/>
<path d="M237.828 367.579L227.07 374.395L261.078 427.982L271.836 421.166L237.828 367.579Z" fill="#85321A"/>
<path d="M284.108 385.954C281.892 336.149 238.692 296.49 185.892 296.49C133.092 296.49 89.8923 336.149 87.6769 385.954H284.108Z" fill="#FFAD4B"/>
<path d="M265.425 365.799C272.372 359.654 268.196 343.604 256.097 329.951C243.999 316.298 228.56 310.212 221.613 316.358C214.666 322.503 218.843 338.553 230.941 352.206C243.04 365.859 258.479 371.945 265.425 365.799Z" fill="#FFC94B"/>
<path d="M209.708 371.566C203.246 369.537 164.662 357.731 155.8 328.402C152.846 318.626 153.954 309.034 156.723 300.733C117.954 312.17 89.5231 345.741 87.6769 385.954H284.108C283.923 380.789 283.185 375.808 282.077 370.828C262.508 376.546 237.031 380.051 209.708 371.566Z" fill="#F07D46"/>
<path d="M189.537 339.25C189.433 338.339 187.461 337.814 185.13 338.078C182.8 338.341 180.995 339.293 181.098 340.205C181.201 341.116 183.174 341.641 185.504 341.377C187.834 341.113 189.64 340.161 189.537 339.25Z" fill="#FFF6F8"/>
<path d="M227.91 318.54C228.452 317.8 227.356 316.079 225.463 314.696C223.569 313.313 221.596 312.792 221.054 313.532C220.513 314.273 221.608 315.994 223.501 317.377C225.395 318.759 227.368 319.28 227.91 318.54Z" fill="#FFF6F8"/>
<path d="M227.838 366.046C228.593 365.524 228.123 363.539 226.789 361.612C225.454 359.685 223.761 358.546 223.006 359.068C222.251 359.59 222.721 361.575 224.056 363.502C225.39 365.429 227.084 366.568 227.838 366.046Z" fill="#FFF6F8"/>
<path d="M271.962 367.643C272.717 367.122 272.247 365.136 270.913 363.209C269.578 361.282 267.885 360.143 267.13 360.665C266.376 361.187 266.845 363.172 268.18 365.099C269.514 367.026 271.208 368.165 271.962 367.643Z" fill="#FFF6F8"/>
<path d="M130.266 356.258C130.859 356.957 132.79 356.297 134.58 354.783C136.37 353.27 137.34 351.475 136.747 350.775C136.154 350.076 134.223 350.736 132.433 352.249C130.643 353.763 129.673 355.558 130.266 356.258Z" fill="#FFDCCB"/>
<path d="M242.037 345.303C242.63 346.003 244.561 345.343 246.351 343.829C248.141 342.315 249.111 340.52 248.518 339.821C247.925 339.121 245.994 339.781 244.204 341.295C242.414 342.809 241.444 344.603 242.037 345.303Z" fill="#FFF6F8"/>
<path d="M249.108 370.336C249.701 371.036 251.633 370.376 253.423 368.862C255.213 367.348 256.183 365.553 255.59 364.854C254.997 364.154 253.066 364.814 251.276 366.328C249.486 367.841 248.515 369.636 249.108 370.336Z" fill="#FFF6F8"/>
<path d="M142.204 332.272C142.958 331.75 142.488 329.765 141.154 327.838C139.82 325.911 138.126 324.772 137.372 325.294C136.617 325.816 137.087 327.801 138.421 329.728C139.756 331.655 141.449 332.794 142.204 332.272Z" fill="#FFDCCB"/>
<path d="M162.488 349.406C163.243 348.884 162.773 346.899 161.439 344.972C160.105 343.045 158.411 341.906 157.656 342.427C156.902 342.949 157.372 344.934 158.706 346.861C160.04 348.788 161.734 349.927 162.488 349.406Z" fill="#FFDCCB"/>
<path d="M191.549 318.145C192.09 317.405 190.994 315.684 189.101 314.302C187.208 312.919 185.234 312.398 184.693 313.138C184.151 313.878 185.247 315.599 187.14 316.982C189.033 318.365 191.007 318.886 191.549 318.145Z" fill="#FFF6F8"/>
<path d="M164.392 313.692C164.933 312.952 163.837 311.231 161.944 309.848C160.051 308.466 158.077 307.945 157.536 308.685C156.994 309.425 158.09 311.146 159.983 312.529C161.876 313.911 163.85 314.432 164.392 313.692Z" fill="#FFF6F8"/>
<path d="M213.903 339.803C214.106 340.697 216.124 341.003 218.412 340.485C220.699 339.968 222.389 338.824 222.186 337.929C221.983 337.035 219.965 336.73 217.678 337.247C215.391 337.764 213.701 338.909 213.903 339.803Z" fill="#FFF6F8"/>
<path d="M156.348 374.648C156.551 375.542 158.569 375.848 160.856 375.33C163.143 374.813 164.833 373.669 164.631 372.774C164.428 371.88 162.41 371.575 160.122 372.092C157.835 372.609 156.145 373.754 156.348 374.648Z" fill="#FFDCCB"/>
<path d="M106.722 349.592C106.925 350.486 108.943 350.792 111.23 350.275C113.517 349.757 115.207 348.613 115.005 347.719C114.802 346.825 112.784 346.519 110.497 347.036C108.209 347.554 106.52 348.698 106.722 349.592Z" fill="#FFDCCB"/>
<path d="M194.806 357.694C195.008 358.589 197.027 358.894 199.314 358.377C201.601 357.859 203.291 356.715 203.088 355.821C202.886 354.927 200.867 354.621 198.58 355.138C196.293 355.656 194.603 356.8 194.806 357.694Z" fill="#FFF6F8"/>
<path d="M184.601 377.305C184.804 378.199 186.822 378.504 189.11 377.987C191.397 377.47 193.087 376.325 192.884 375.431C192.681 374.537 190.663 374.231 188.376 374.749C186.089 375.266 184.399 376.41 184.601 377.305Z" fill="#FFDCCB"/>
<path d="M113.676 375.01C113.878 375.904 115.897 376.21 118.184 375.692C120.471 375.175 122.161 374.03 121.958 373.136C121.756 372.242 119.737 371.936 117.45 372.454C115.163 372.971 113.473 374.116 113.676 375.01Z" fill="#FFDCCB"/>
<path d="M110.754 411.594H173.708L140.662 428.564L110.754 411.594Z" fill="#E6C82E"/>
<path d="M205.646 411.594H268.415L235.369 428.564L205.646 411.594Z" fill="#E6C82E"/>
<path d="M173.708 411.594H110.754L118.508 416.021H165.215L173.708 411.594Z" fill="#D4942A"/>
<path d="M213.215 416.021H259.923L268.415 411.594H205.646L213.215 416.021Z" fill="#D4942A"/>
<path d="M142.692 420.079C146.385 416.759 152.292 417.312 152.662 418.603C153.215 420.448 141.4 426.351 140.108 424.69C139.369 423.953 141.215 421.37 142.692 420.079Z" fill="#FFF6F8"/>
<path d="M237.585 420.632C241.277 417.312 247.185 417.865 247.554 419.157C248.108 421.001 236.292 426.904 235 425.244C234.446 424.506 236.108 421.924 237.585 420.632Z" fill="#FFF6F8"/>
<path d="M230.754 422.108C231.123 422.846 232.415 423.03 233.338 422.477C233.892 422.108 234.446 421.37 234.077 420.448C233.892 419.71 232.969 419.341 232.415 419.341C231.308 419.526 230.385 421.186 230.754 422.108Z" fill="#FFF6F8"/>
<path d="M233.892 255.356L226.138 280.258L258.077 275.831L233.892 255.356Z" fill="#FF4A32"/>
<path d="M234.803 254.523L233.926 254.236L213.914 315.426L214.791 315.713L234.803 254.523Z" fill="#FFF6F8"/>
</g>
<g clip-path="url(#clip1_1_819)">
<path d="M93.5062 58.0125C97.0995 58.0125 100.012 55.0995 100.012 51.5062C100.012 47.9129 97.0995 45 93.5062 45C89.9129 45 87 47.9129 87 51.5062C87 55.0995 89.9129 58.0125 93.5062 58.0125Z" fill="#FEC00F"/>
<path d="M103.297 75.4616C103.297 75.4616 104.798 74.1108 105.509 73.3951C111.301 67.5674 111.927 66.3296 117.697 60.4787C119.742 58.4044 122.151 57.4827 124.978 58.3099C129.405 59.6189 131.245 65.3475 127.906 68.7617C117.228 79.6782 111.75 84.8724 111.75 84.8724" fill="#FEC00F"/>
<path d="M100.999 84.7948C101.738 85.481 102.502 86.1441 103.213 86.8597C109.006 92.6885 114.789 98.5235 120.563 104.365C122.609 106.439 125.018 107.361 127.844 106.526C132.273 105.218 134.113 99.4896 130.773 96.0754C120.095 85.1588 109.183 74.4669 98.2419 63.8199C96.2931 61.9238 93.8594 60.2895 90.7628 61.961C87.7234 63.6139 87.0558 66.2722 87.0775 69.4463C87.1456 79.4798 87.0868 89.5134 87.1193 99.5469C87.1332 104.231 89.539 106.972 93.5496 107.018C97.6222 107.066 100.14 104.214 100.177 99.4121C100.212 94.661 100.177 89.9084 100.177 85.1604L100.999 84.7948Z" fill="#C75740"/>
<path d="M162.596 72.5539L152.186 81.4767L163.014 96.7663H156.276L148.05 85.0551L145.169 87.5182V96.6734H139.731V64.1887H145.169V80.5008L154.556 72.5539H162.596Z" fill="#C75740"/>
<path d="M184.621 75.4816V72.5074H190.059V96.6734H184.621V93.6991C182.53 95.9763 179.788 97.1846 176.814 97.1846C170.308 97.1846 164.824 91.4219 164.824 84.4974C164.824 77.6659 170.261 72.0891 176.814 72.0891C179.928 72.0891 182.623 73.2509 184.621 75.4816ZM177.468 77.1082C173.424 77.1082 170.311 80.4078 170.311 84.6833C170.311 88.9588 173.332 92.119 177.421 92.119C181.511 92.119 184.624 88.8194 184.624 84.6368C184.621 80.4078 181.415 77.1082 177.468 77.1082Z" fill="#C75740"/>
<path d="M200.887 75.6723C203.35 73.0234 206.557 72.2798 210.089 72.2798L208.416 77.3918C203.815 77.3918 200.887 79.9478 200.887 84.6416V96.7246H195.45V72.5586H200.887V75.6723Z" fill="#C75740"/>
<path d="M215.757 63.3523C216.57 63.3523 217.35 63.6754 217.926 64.2507C218.501 64.8259 218.824 65.606 218.824 66.4195C218.824 67.233 218.501 68.0132 217.926 68.5884C217.35 69.1636 216.57 69.4867 215.757 69.4867C214.037 69.4867 212.736 68.139 212.736 66.4195C212.736 64.7 214.037 63.3523 215.757 63.3523ZM218.452 72.5075V96.6735H213.061V72.5075H218.452Z" fill="#C75740"/>
</g>
<rect x="225" y="89" width="103" height="17" fill="white" fill-opacity="0.6"/>
<path d="M231.321 109.8C230.061 109.8 228.921 109.515 227.901 108.945C226.881 108.375 226.371 107.565 226.371 106.515C226.371 105.735 226.626 105.135 227.136 104.715C227.646 104.295 228.246 104.085 228.936 104.085C229.626 104.085 230.271 104.265 230.871 104.625C231.441 104.985 231.951 105.615 232.401 106.515L232.851 107.64C233.031 107.97 233.241 108.15 233.481 108.18C233.721 108.24 233.946 108.09 234.156 107.73C234.306 107.46 234.441 107.145 234.561 106.785C234.681 106.455 234.831 106.035 235.011 105.525C235.431 104.505 235.791 103.26 236.091 101.79C236.421 100.35 236.721 98.745 236.991 96.975C237.471 94.035 237.936 91.02 238.386 87.93C238.836 84.84 239.301 81.585 239.781 78.165H236.136L236.226 77.76L237.981 77.58C238.701 77.49 239.241 77.25 239.601 76.86C239.961 76.47 240.246 75.9 240.456 75.15C241.266 72.54 242.571 70.53 244.371 69.12C246.171 67.71 248.391 67.005 251.031 67.005C252.531 67.005 253.746 67.335 254.676 67.995C255.606 68.625 256.071 69.435 256.071 70.425C256.071 71.235 255.816 71.88 255.306 72.36C254.796 72.84 254.181 73.08 253.461 73.08C252.051 73.08 250.881 72.135 249.951 70.245L249.771 69.525C249.501 68.895 249.186 68.595 248.826 68.625C248.496 68.625 248.211 68.85 247.971 69.3C247.461 70.02 246.996 71.025 246.576 72.315C246.156 73.605 245.781 75.285 245.451 77.355H250.941L250.716 78.3L245.316 78.255C244.836 81.435 244.356 84.63 243.876 87.84C243.426 91.02 242.931 94.08 242.391 97.02C241.971 99.24 241.416 101.16 240.726 102.78C240.066 104.43 239.166 105.825 238.026 106.965C237.096 107.895 236.046 108.6 234.876 109.08C233.736 109.56 232.551 109.8 231.321 109.8ZM258.292 99.675C256.732 99.675 255.307 99.375 254.017 98.775C252.727 98.145 251.707 97.215 250.957 95.985C250.207 94.725 249.832 93.135 249.832 91.215C249.832 89.295 250.147 87.465 250.777 85.725C251.437 83.985 252.352 82.44 253.522 81.09C254.692 79.71 256.057 78.63 257.617 77.85C259.177 77.07 260.872 76.68 262.702 76.68C264.292 76.68 265.702 76.995 266.932 77.625C268.192 78.225 269.182 79.14 269.902 80.37C270.652 81.6 271.027 83.175 271.027 85.095C271.027 86.985 270.697 88.815 270.037 90.585C269.407 92.325 268.507 93.885 267.337 95.265C266.197 96.615 264.847 97.695 263.287 98.505C261.757 99.285 260.092 99.675 258.292 99.675ZM258.832 98.775C259.762 98.775 260.602 98.355 261.352 97.515C262.132 96.645 262.807 95.505 263.377 94.095C263.947 92.655 264.382 91.08 264.682 89.37C264.982 87.63 265.132 85.905 265.132 84.195C265.132 81.705 264.877 79.98 264.367 79.02C263.857 78.06 263.197 77.58 262.387 77.58C261.427 77.58 260.542 78 259.732 78.84C258.922 79.68 258.217 80.805 257.617 82.215C257.017 83.625 256.552 85.185 256.222 86.895C255.892 88.605 255.727 90.315 255.727 92.025C255.727 94.575 256.027 96.345 256.627 97.335C257.227 98.295 257.962 98.775 258.832 98.775ZM281.847 99.675C280.287 99.675 278.862 99.375 277.572 98.775C276.282 98.145 275.262 97.215 274.512 95.985C273.762 94.725 273.387 93.135 273.387 91.215C273.387 89.295 273.702 87.465 274.332 85.725C274.992 83.985 275.907 82.44 277.077 81.09C278.247 79.71 279.612 78.63 281.172 77.85C282.732 77.07 284.427 76.68 286.257 76.68C287.847 76.68 289.257 76.995 290.487 77.625C291.747 78.225 292.737 79.14 293.457 80.37C294.207 81.6 294.582 83.175 294.582 85.095C294.582 86.985 294.252 88.815 293.592 90.585C292.962 92.325 292.062 93.885 290.892 95.265C289.752 96.615 288.402 97.695 286.842 98.505C285.312 99.285 283.647 99.675 281.847 99.675ZM282.387 98.775C283.317 98.775 284.157 98.355 284.907 97.515C285.687 96.645 286.362 95.505 286.932 94.095C287.502 92.655 287.937 91.08 288.237 89.37C288.537 87.63 288.687 85.905 288.687 84.195C288.687 81.705 288.432 79.98 287.922 79.02C287.412 78.06 286.752 77.58 285.942 77.58C284.982 77.58 284.097 78 283.287 78.84C282.477 79.68 281.772 80.805 281.172 82.215C280.572 83.625 280.107 85.185 279.777 86.895C279.447 88.605 279.282 90.315 279.282 92.025C279.282 94.575 279.582 96.345 280.182 97.335C280.782 98.295 281.517 98.775 282.387 98.775ZM301.441 99.675C300.241 99.675 299.176 99.21 298.246 98.28C297.346 97.35 296.896 95.73 296.896 93.42C296.896 91.86 297.196 90.285 297.796 88.695C298.396 87.105 299.191 85.605 300.181 84.195C301.201 82.755 302.341 81.465 303.601 80.325C304.891 79.185 306.226 78.3 307.606 77.67C308.986 77.01 310.336 76.68 311.656 76.68C312.256 76.68 312.826 76.77 313.366 76.95L314.041 73.575C314.311 72.225 313.816 71.31 312.556 70.83L311.566 70.425L311.656 69.975L320.386 67.455L320.701 67.77L315.166 93.96C315.076 94.44 315.001 94.845 314.941 95.175C314.911 95.475 314.896 95.775 314.896 96.075C314.896 96.705 315.151 97.02 315.661 97.02C316.021 97.02 316.501 96.84 317.101 96.48C317.731 96.09 318.361 95.52 318.991 94.77L319.486 95.22C318.766 96.42 317.791 97.47 316.561 98.37C315.331 99.24 314.026 99.675 312.646 99.675C311.656 99.675 310.876 99.36 310.306 98.73C309.736 98.07 309.451 97.23 309.451 96.21C309.451 95.7 309.496 95.1 309.586 94.41C308.356 95.97 307.006 97.245 305.536 98.235C304.096 99.195 302.731 99.675 301.441 99.675ZM302.386 91.98C302.386 93.48 302.626 94.56 303.106 95.22C303.586 95.88 304.216 96.21 304.996 96.21C306.376 96.21 307.966 95.16 309.766 93.06C309.796 92.91 309.826 92.745 309.856 92.565L312.601 79.29C311.851 78.6 310.966 78.255 309.946 78.255C309.196 78.255 308.491 78.435 307.831 78.795C307.201 79.125 306.601 79.605 306.031 80.235C305.341 81.015 304.711 82.065 304.141 83.385C303.601 84.675 303.166 86.085 302.836 87.615C302.536 89.115 302.386 90.57 302.386 91.98Z" fill="#C75740"/>
<defs>
<clipPath id="clip0_1_819">
<rect width="240" height="303" fill="white" transform="translate(67 156)"/>
</clipPath>
<clipPath id="clip1_1_819">
<rect width="200" height="62.0199" fill="white" transform="translate(87 45)"/>
</clipPath>
</defs>
</svg>
