<svg width="16" height="24" viewBox="0 0 16 24" fill="none" xmlns="http://www.w3.org/2000/svg">
<path fill-rule="evenodd" clip-rule="evenodd" d="M3.27273 0H12C13.8075 0 15.2727 1.46525 15.2727 3.27273V20.7273C15.2727 22.5347 13.8075 24 12 24H3.27273C1.46525 24 0 22.5347 0 20.7273V3.27273C0 1.46525 1.46525 0 3.27273 0ZM3.27265 21.8179H11.9999C12.6024 21.8179 13.0908 21.3295 13.0908 20.727V3.27247C13.0908 2.66998 12.6024 2.18156 11.9999 2.18156C11.3974 2.18156 10.909 2.66998 10.909 3.27247C10.909 3.87496 10.4206 4.36338 9.8181 4.36338H5.45447C4.85197 4.36338 4.36356 3.87496 4.36356 3.27247C4.36356 2.66998 3.87514 2.18156 3.27265 2.18156C2.67016 2.18156 2.18174 2.66998 2.18174 3.27247V20.727C2.18174 21.3295 2.67016 21.8179 3.27265 21.8179Z" fill="#4B79FE"/>
</svg>
