<svg width="20" height="24" viewBox="0 0 20 24" fill="none" xmlns="http://www.w3.org/2000/svg">
<path fill-rule="evenodd" clip-rule="evenodd" d="M2.616 23.82C2.72434 23.9366 2.87687 24.0019 3.036 24H3.384C3.54312 24.0019 3.69566 23.9366 3.804 23.82L6 21.6C6.23738 21.3699 6.61462 21.3699 6.852 21.6L9.024 23.772C9.13233 23.8886 9.28487 23.9539 9.444 23.952H9.792C9.95112 23.9539 10.1037 23.8886 10.212 23.772L12.384 21.6C12.6163 21.3922 12.9677 21.3922 13.2 21.6L15.372 23.772C15.4803 23.8886 15.6329 23.9539 15.792 23.952H16.14C16.2991 23.9539 16.4517 23.8886 16.56 23.772L18.852 21.6C19.0737 21.3765 19.1987 21.0748 19.2 20.76V1.2C19.2 0.537258 18.6627 0 18 0H1.2C0.537258 0 0 0.537258 0 1.2V20.712C0.00442019 21.0297 0.128719 21.334 0.348 21.564L2.616 23.82ZM10.8 13.8C10.8 14.1314 10.5314 14.4 10.2 14.4H5.40004C5.06867 14.4 4.80004 14.1314 4.80004 13.8V12.6C4.80004 12.2686 5.06867 12 5.40004 12H10.2C10.5314 12 10.8 12.2686 10.8 12.6V13.8ZM13.8 9.60015C14.1314 9.60015 14.4 9.33152 14.4 9.00015V7.80015C14.4 7.46878 14.1314 7.20015 13.8 7.20015H5.40004C5.06867 7.20015 4.80004 7.46878 4.80004 7.80015V9.00015C4.80004 9.33152 5.06867 9.60015 5.40004 9.60015H13.8Z" fill="#FFC75D"/>
</svg>
