<svg width="23" height="23" viewBox="0 0 23 23" fill="none" xmlns="http://www.w3.org/2000/svg">
<path d="M22.2271 7.75303L20.1585 5.68444C19.9916 5.51979 19.7691 5.42365 19.5348 5.41498C19.3005 5.4063 19.0715 5.48571 18.8929 5.63756C18.6171 5.87228 18.2632 5.99484 17.9014 5.98095C17.5395 5.96706 17.1961 5.81773 16.9391 5.56256C16.6841 5.30563 16.5348 4.96229 16.521 4.60054C16.5071 4.23879 16.6295 3.88501 16.8641 3.60928C17.016 3.43067 17.0954 3.20164 17.0867 2.96736C17.078 2.73308 16.9819 2.51055 16.8172 2.34366L14.7468 0.27272C14.5718 0.0980822 14.3347 0 14.0875 0C13.8403 0 13.6032 0.0980822 13.4282 0.27272L10.1305 3.56991C9.92694 3.77423 9.7734 4.02291 9.68194 4.29647C9.66413 4.34906 9.63444 4.39685 9.59518 4.43611C9.55591 4.47538 9.50813 4.50507 9.45553 4.52288C9.18186 4.61433 8.93315 4.76805 8.72897 4.97194L0.27272 13.4282C0.0980822 13.6032 0 13.8403 0 14.0875C0 14.3347 0.0980822 14.5718 0.27272 14.7468L2.34366 16.8154C2.51055 16.98 2.73308 17.0762 2.96736 17.0848C3.20164 17.0935 3.43067 17.0141 3.60928 16.8623C3.88438 16.6256 4.23874 16.5017 4.60135 16.5153C4.96396 16.5289 5.30803 16.6791 5.56461 16.9357C5.8212 17.1923 5.97134 17.5363 5.98495 17.8989C5.99857 18.2615 5.87465 18.6159 5.63803 18.891C5.48618 19.0696 5.40677 19.2986 5.41545 19.5329C5.42412 19.7672 5.52026 19.9897 5.68491 20.1566L7.7535 22.2252C7.92847 22.3999 8.16559 22.4979 8.4128 22.4979C8.66001 22.4979 8.89712 22.3999 9.07209 22.2252L17.5283 13.769C17.7321 13.5649 17.8858 13.3163 17.9774 13.0429C17.9951 12.9901 18.0248 12.9422 18.0642 12.9028C18.1036 12.8634 18.1515 12.8337 18.2043 12.816C18.4777 12.7245 18.7262 12.571 18.9304 12.3674L22.2276 9.06975C22.4016 8.89479 22.4992 8.65805 22.4991 8.41129C22.499 8.16454 22.4012 7.92786 22.2271 7.75303ZM11.5223 6.36319C11.4526 6.43285 11.3699 6.48811 11.2789 6.52581C11.1879 6.56351 11.0904 6.58292 10.9919 6.58292C10.8934 6.58292 10.7958 6.56351 10.7048 6.52581C10.6138 6.48811 10.5311 6.43285 10.4615 6.36319L9.92194 5.82366C9.78471 5.6823 9.70862 5.49262 9.7101 5.29561C9.71158 5.0986 9.79052 4.91008 9.92986 4.77081C10.0692 4.63153 10.2578 4.55267 10.4548 4.55127C10.6518 4.54988 10.8414 4.62605 10.9827 4.76334L11.5223 5.30241C11.5919 5.37205 11.6472 5.45474 11.6849 5.54575C11.7226 5.63675 11.742 5.73429 11.742 5.8328C11.742 5.9313 11.7226 6.02884 11.6849 6.11985C11.6472 6.21086 11.5919 6.29354 11.5223 6.36319ZM13.5848 8.42569C13.4441 8.56623 13.2534 8.64518 13.0546 8.64518C12.8558 8.64518 12.6651 8.56623 12.5244 8.42569L12.0088 7.91006C11.9392 7.84041 11.8839 7.75772 11.8462 7.66672C11.8085 7.57571 11.7891 7.47818 11.7891 7.37967C11.7891 7.28117 11.8085 7.18363 11.8462 7.09263C11.8839 7.00162 11.9392 6.91893 12.0088 6.84928C12.1495 6.70861 12.3403 6.62959 12.5392 6.62959C12.6377 6.62959 12.7352 6.64899 12.8262 6.68668C12.9173 6.72438 12.9999 6.77963 13.0696 6.84928L13.5852 7.36491C13.6551 7.43455 13.7106 7.5173 13.7485 7.60842C13.7863 7.69954 13.8058 7.79723 13.8059 7.8959C13.8059 7.99458 13.7865 8.09229 13.7487 8.18344C13.7109 8.27459 13.6555 8.35739 13.5857 8.42709L13.5848 8.42569ZM15.6473 10.4882C15.5776 10.5578 15.4949 10.6131 15.4039 10.6508C15.3129 10.6885 15.2154 10.7079 15.1169 10.7079C15.0184 10.7079 14.9208 10.6885 14.8298 10.6508C14.7388 10.6131 14.6561 10.5578 14.5865 10.4882L14.0708 9.97256C13.9336 9.8312 13.8575 9.64152 13.859 9.44451C13.8605 9.2475 13.9394 9.05899 14.0788 8.91971C14.2181 8.78043 14.4067 8.70157 14.6037 8.70018C14.8007 8.69878 14.9903 8.77496 15.1316 8.91225L15.6473 9.42788C15.7173 9.4974 15.773 9.58008 15.8111 9.67118C15.8492 9.76227 15.8689 9.85999 15.8691 9.95872C15.8693 10.0574 15.85 10.1552 15.8124 10.2465C15.7747 10.3378 15.7194 10.4207 15.6496 10.4905L15.6473 10.4882ZM17.7299 12.576C17.6603 12.6457 17.5776 12.7009 17.4866 12.7386C17.3956 12.7763 17.298 12.7957 17.1995 12.7957C17.101 12.7957 17.0035 12.7763 16.9125 12.7386C16.8215 12.7009 16.7388 12.6457 16.6691 12.576L16.1329 12.0369C16.0618 11.9675 16.0051 11.8846 15.9663 11.7931C15.9275 11.7016 15.9073 11.6033 15.9068 11.5039C15.9063 11.4045 15.9256 11.306 15.9636 11.2141C16.0015 11.1222 16.0573 11.0388 16.1278 10.9687C16.1982 10.8986 16.2819 10.8431 16.374 10.8057C16.466 10.7682 16.5646 10.7494 16.664 10.7503C16.7634 10.7513 16.8617 10.772 16.953 10.8112C17.0443 10.8505 17.1269 10.9075 17.196 10.979L17.7327 11.5176C17.8024 11.5872 17.8576 11.67 17.8952 11.761C17.9329 11.852 17.9523 11.9495 17.9522 12.0481C17.9522 12.1466 17.9327 12.2441 17.895 12.3351C17.8572 12.4261 17.8019 12.5087 17.7323 12.5783L17.7299 12.576Z" fill="#2ECC72"/>
</svg>
