<svg width="14" height="12" viewBox="0 0 14 12" fill="none" xmlns="http://www.w3.org/2000/svg">
<path fill-rule="evenodd" clip-rule="evenodd" d="M0 1C0 0.734784 0.105357 0.48043 0.292893 0.292893C0.48043 0.105357 0.734784 0 1 0H13C13.2652 0 13.5196 0.105357 13.7071 0.292893C13.8946 0.48043 14 0.734784 14 1C14 1.26522 13.8946 1.51957 13.7071 1.70711C13.5196 1.89464 13.2652 2 13 2H1C0.734784 2 0.48043 1.89464 0.292893 1.70711C0.105357 1.51957 0 1.26522 0 1Z" fill="#111719"/>
<path fill-rule="evenodd" clip-rule="evenodd" d="M0 6C0 5.73478 0.0978313 5.48043 0.271972 5.29289C0.446113 5.10536 0.682299 5 0.928571 5H12.0714C12.3177 5 12.5539 5.10536 12.728 5.29289C12.9022 5.48043 13 5.73478 13 6C13 6.26522 12.9022 6.51957 12.728 6.70711C12.5539 6.89464 12.3177 7 12.0714 7H0.928571C0.682299 7 0.446113 6.89464 0.271972 6.70711C0.0978313 6.51957 0 6.26522 0 6Z" fill="#111719"/>
<path fill-rule="evenodd" clip-rule="evenodd" d="M0 11C0 10.7348 0.105357 10.4804 0.292893 10.2929C0.48043 10.1054 0.734784 10 1 10H7C7.26522 10 7.51957 10.1054 7.70711 10.2929C7.89464 10.4804 8 10.7348 8 11C8 11.2652 7.89464 11.5196 7.70711 11.7071C7.51957 11.8946 7.26522 12 7 12H1C0.734784 12 0.48043 11.8946 0.292893 11.7071C0.105357 11.5196 0 11.2652 0 11Z" fill="#111719"/>
</svg>
