<svg width="32" height="32" viewBox="0 0 32 32" fill="none" xmlns="http://www.w3.org/2000/svg">
<path d="M16 10.6667V16.6667L21.3333 18.6667" stroke="black" stroke-width="2" stroke-linecap="round" stroke-linejoin="round"/>
<path d="M5.33301 16C5.33301 13.4403 6.22572 10.9607 7.85736 8.98834C9.489 7.01602 11.7574 5.67449 14.2718 5.19484C16.7862 4.71519 19.3892 5.12746 21.6323 6.36063C23.8754 7.59379 25.6182 9.57064 26.5605 11.9506C27.5029 14.3306 27.5856 16.9647 26.7946 19.3992C26.0036 21.8336 24.3884 23.916 22.2271 25.2876C20.0658 26.6592 17.4939 27.2341 14.9543 26.9133C12.4148 26.5924 10.0666 25.396 8.31436 23.53" stroke="black" stroke-width="2" stroke-linecap="round"/>
<path d="M8 14.6667L5.33333 17.3334L2.66667 14.6667" fill="black" stroke="black" stroke-width="2" stroke-linecap="round" stroke-linejoin="round"/>
</svg>
