<svg width="20" height="24" viewBox="0 0 20 24" fill="none" xmlns="http://www.w3.org/2000/svg">
<path fill-rule="evenodd" clip-rule="evenodd" d="M2.616 23.82C2.72434 23.9366 2.87688 24.0019 3.036 24H3.384C3.54313 24.0019 3.69566 23.9366 3.804 23.82L6 21.6C6.23738 21.3699 6.61462 21.3699 6.852 21.6L9.024 23.772C9.13234 23.8886 9.28488 23.9539 9.444 23.952H9.792C9.95113 23.9539 10.1037 23.8886 10.212 23.772L12.384 21.6C12.6163 21.3922 12.9677 21.3922 13.2 21.6L15.372 23.772C15.4803 23.8886 15.6329 23.9539 15.792 23.952H16.14C16.2991 23.9539 16.4517 23.8886 16.56 23.772L18.852 21.6C19.0737 21.3765 19.1987 21.0748 19.2 20.76V1.2C19.2 0.537258 18.6627 0 18 0H1.2C0.537258 0 0 0.537258 0 1.2V20.712C0.00442019 21.0297 0.12872 21.334 0.348 21.564L2.616 23.82ZM10.8008 13.8C10.8008 14.1314 10.5322 14.4 10.2008 14.4H5.40078C5.06941 14.4 4.80078 14.1314 4.80078 13.8V12.6C4.80078 12.2686 5.06941 12 5.40078 12H10.2008C10.5322 12 10.8008 12.2686 10.8008 12.6V13.8ZM13.8008 9.59995C14.1322 9.59995 14.4008 9.33132 14.4008 8.99995V7.79995C14.4008 7.46858 14.1322 7.19995 13.8008 7.19995H5.40078C5.06941 7.19995 4.80078 7.46858 4.80078 7.79995V8.99995C4.80078 9.33132 5.06941 9.59995 5.40078 9.59995H13.8008Z" fill="black"/>
</svg>
