<svg width="32" height="32" viewBox="0 0 32 32" fill="none" xmlns="http://www.w3.org/2000/svg">
<g clip-path="url(#clip0_1003_31663)">
<path d="M25.5 6H6.5C4.567 6 3 7.567 3 9.5V22.5C3 24.433 4.567 26 6.5 26H25.5C27.433 26 29 24.433 29 22.5V9.5C29 7.567 27.433 6 25.5 6Z" stroke="black" stroke-width="2" stroke-linecap="round" stroke-linejoin="round"/>
<path d="M2.66699 12H28.667" stroke="black" stroke-width="2" stroke-linejoin="round"/>
<mask id="path-3-outside-1_1003_31663" maskUnits="userSpaceOnUse" x="23.667" y="20.6667" width="11" height="11" fill="black">
<rect fill="white" x="23.667" y="20.6667" width="11" height="11"/>
<path fill-rule="evenodd" clip-rule="evenodd" d="M30.0003 22.6667H28.0003V25.0001H25.667V27.0001H28.0003V29.3334H30.0003V27.0001H32.3337V25.0001H30.0003V22.6667Z"/>
</mask>
<path fill-rule="evenodd" clip-rule="evenodd" d="M30.0003 22.6667H28.0003V25.0001H25.667V27.0001H28.0003V29.3334H30.0003V27.0001H32.3337V25.0001H30.0003V22.6667Z" fill="black"/>
<path d="M28.0003 22.6667V20.6667H26.0003V22.6667H28.0003ZM30.0003 22.6667H32.0003V20.6667H30.0003V22.6667ZM28.0003 25.0001V27.0001H30.0003V25.0001H28.0003ZM25.667 25.0001V23.0001H23.667V25.0001H25.667ZM25.667 27.0001H23.667V29.0001H25.667V27.0001ZM28.0003 27.0001H30.0003V25.0001H28.0003V27.0001ZM28.0003 29.3334H26.0003V31.3334H28.0003V29.3334ZM30.0003 29.3334V31.3334H32.0003V29.3334H30.0003ZM30.0003 27.0001V25.0001H28.0003V27.0001H30.0003ZM32.3337 27.0001V29.0001H34.3337V27.0001H32.3337ZM32.3337 25.0001H34.3337V23.0001H32.3337V25.0001ZM30.0003 25.0001H28.0003V27.0001H30.0003V25.0001ZM28.0003 24.6667H30.0003V20.6667H28.0003V24.6667ZM30.0003 25.0001V22.6667H26.0003V25.0001H30.0003ZM25.667 27.0001H28.0003V23.0001H25.667V27.0001ZM27.667 27.0001V25.0001H23.667V27.0001H27.667ZM28.0003 25.0001H25.667V29.0001H28.0003V25.0001ZM30.0003 29.3334V27.0001H26.0003V29.3334H30.0003ZM30.0003 27.3334H28.0003V31.3334H30.0003V27.3334ZM28.0003 27.0001V29.3334H32.0003V27.0001H28.0003ZM32.3337 25.0001H30.0003V29.0001H32.3337V25.0001ZM30.3337 25.0001V27.0001H34.3337V25.0001H30.3337ZM30.0003 27.0001H32.3337V23.0001H30.0003V27.0001ZM28.0003 22.6667V25.0001H32.0003V22.6667H28.0003Z" fill="#FEC00F" mask="url(#path-3-outside-1_1003_31663)"/>
<path d="M11 18.75H8V20H11V18.75Z" stroke="black" stroke-width="2" stroke-linejoin="round"/>
</g>
<defs>
<clipPath id="clip0_1003_31663">
<rect width="32" height="32" fill="white"/>
</clipPath>
</defs>
</svg>
