<svg width="20" height="20" viewBox="0 0 20 20" fill="none" xmlns="http://www.w3.org/2000/svg">
<path fill-rule="evenodd" clip-rule="evenodd" d="M17.7778 4.44444H3.33333C2.71968 4.44444 2.22222 3.94698 2.22222 3.33333C2.22222 2.71968 2.71968 2.22222 3.33333 2.22222H17.7778C17.7778 0.994923 16.7829 0 15.5556 0H3.33333C1.49238 0 0 1.49238 0 3.33333V17.7778C0 19.0051 0.994923 20 2.22222 20H17.7778C19.0051 20 20 19.0051 20 17.7778V6.66667C20 5.43937 19.0051 4.44444 17.7778 4.44444ZM17.7778 15.5558H10C9.38638 15.5558 8.88892 15.0584 8.88892 14.4447V10.0003C8.88892 9.38662 9.38638 8.88916 10 8.88916H17.7778V15.5558ZM12.7778 13.3331H11.6666C11.3598 13.3331 11.1111 13.0843 11.1111 12.7775V11.6664C11.1111 11.3596 11.3598 11.1108 11.6666 11.1108H12.7778C13.0846 11.1108 13.3333 11.3596 13.3333 11.6664V12.7775C13.3333 13.0843 13.0846 13.3331 12.7778 13.3331Z" fill="#FEC00F"/>
</svg>
